<svg version="1.1" id="Ebene_1" xmlns="http://www.w3.org/2000/svg" xmlns:xlink="http://www.w3.org/1999/xlink" x="0px" y="0px" viewBox="0 0 315.35 127.56" style="enable-background:new 0 0 315.35 127.56;" xml:space="preserve" width="315.35" height="127.56">
<style type="text/css">
	.st0{clip-path:url(#SVGID_2_);fill:#3CB5A1;}
	.st1{clip-path:url(#SVGID_2_);fill:#69A546;}
	.st2{clip-path:url(#SVGID_2_);fill:#00913C;}
	.st3{clip-path:url(#SVGID_2_);fill:#72A85E;}
	.st4{clip-path:url(#SVGID_2_);fill:#4DB6B7;}
	.st5{clip-path:url(#SVGID_2_);fill:#6DB576;}
	.st6{clip-path:url(#SVGID_2_);fill:#95C11F;}
	.st7{clip-path:url(#SVGID_2_);fill:#31B7BC;}
	.st8{clip-path:url(#SVGID_2_);fill:#52AE32;}
	.st9{clip-path:url(#SVGID_2_);fill:#6AB78A;}
	.st10{clip-path:url(#SVGID_2_);fill:#579A32;}
	.st11{clip-path:url(#SVGID_2_);fill:#00B0E3;}
	.st12{clip-path:url(#SVGID_2_);fill:#8FB15D;}
	.st13{clip-path:url(#SVGID_2_);fill:#76AE62;}
	.st14{clip-path:url(#SVGID_2_);fill:#51B4A6;}
	.st15{clip-path:url(#SVGID_2_);fill:#6A9869;}
	.st16{clip-path:url(#SVGID_2_);fill:#8CA88A;}
	.st17{clip-path:url(#SVGID_2_);fill:#929B9E;}
	.st18{clip-path:url(#SVGID_2_);fill:#9C88BF;}
	.st19{clip-path:url(#SVGID_2_);fill:#76A47C;}
	.st20{clip-path:url(#SVGID_2_);fill:#54AB85;}
	.st21{clip-path:url(#SVGID_2_);fill:#71B783;}
	.st22{clip-path:url(#SVGID_2_);fill:#72B240;}
	.st23{clip-path:url(#SVGID_2_);fill:#8491B6;}
	.st24{clip-path:url(#SVGID_2_);fill:#6EAAC1;}
	.st25{clip-path:url(#SVGID_2_);fill:#72A471;}
	.st26{clip-path:url(#SVGID_2_);fill:#9294A9;}
	.st27{clip-path:url(#SVGID_2_);fill:#6CB0BD;}
	.st28{clip-path:url(#SVGID_2_);fill:#00305B;}
</style>
<g>
	<defs>
		<rect id="SVGID_1_" y="0" width="315.35" height="127.56"/>
	</defs>

	<path class="st0" d="M257.75,13.83c0,0.6-0.48,1.08-1.08,1.08c-0.6,0-1.08-0.48-1.08-1.08c0-0.6,0.49-1.08,1.08-1.08   C257.27,12.75,257.76,13.24,257.75,13.83"/>
	<path class="st1" d="M265.04,14.59c0-0.67-0.55-1.22-1.22-1.21c-0.67,0-1.21,0.54-1.21,1.21c0,0.67,0.54,1.21,1.21,1.22   C264.49,15.8,265.03,15.26,265.04,14.59"/>
	<path class="st2" d="M239.11,18.16c0-0.54-0.44-0.98-0.98-0.98c-0.54,0-0.98,0.44-0.98,0.98c0,0.54,0.44,0.97,0.98,0.98   C238.68,19.14,239.11,18.7,239.11,18.16"/>
	<path class="st3" d="M246.62,18.92c0-0.74-0.6-1.33-1.33-1.33c-0.73,0-1.33,0.59-1.33,1.33c0,0.74,0.6,1.34,1.33,1.34   C246.02,20.25,246.62,19.65,246.62,18.92"/>
	<path class="st4" d="M254.33,19.67c0-1.04-0.85-1.89-1.89-1.89c-1.04,0-1.89,0.84-1.89,1.89c0,1.04,0.85,1.89,1.89,1.89   C253.49,21.56,254.33,20.71,254.33,19.67"/>
	<path class="st5" d="M262.17,20.42c0-1.43-1.15-2.58-2.57-2.58c-1.43,0-2.58,1.15-2.58,2.57c0,1.42,1.15,2.58,2.58,2.58   C261.02,22.99,262.17,21.84,262.17,20.42"/>
	<path class="st1" d="M268.46,21.17c0-0.95-0.77-1.71-1.71-1.72c-0.95,0-1.72,0.76-1.72,1.72c0,0.95,0.77,1.71,1.71,1.71   C267.69,22.88,268.46,22.12,268.46,21.17"/>
	<path class="st1" d="M275.26,21.92c0-0.75-0.61-1.36-1.36-1.36c-0.75,0-1.35,0.61-1.36,1.36c0,0.75,0.62,1.36,1.36,1.36   C274.65,23.28,275.26,22.67,275.26,21.92"/>
	<path class="st2" d="M282.03,22.67c0-0.55-0.44-0.98-0.98-0.98c-0.54,0-0.98,0.44-0.98,0.98c0,0.54,0.44,0.98,0.99,0.98   C281.6,23.65,282.04,23.22,282.03,22.67"/>
	<path class="st1" d="M227.73,23.24c0-0.54-0.43-0.98-0.97-0.98c-0.54,0-0.98,0.44-0.98,0.98c0,0.54,0.43,0.98,0.97,0.98   C227.29,24.22,227.73,23.78,227.73,23.24"/>
	<path class="st3" d="M235.4,23.99c0-0.82-0.67-1.48-1.49-1.49c-0.82,0-1.48,0.66-1.48,1.49c0,0.82,0.66,1.48,1.49,1.48   C234.73,25.47,235.39,24.81,235.4,23.99"/>
	<path class="st6" d="M243.55,24.74c0-1.38-1.12-2.49-2.49-2.49c-1.38,0-2.49,1.12-2.49,2.5c0,1.37,1.12,2.49,2.49,2.49   C242.44,27.23,243.55,26.12,243.55,24.74"/>
	<path class="st5" d="M250.76,25.49c0-1.41-1.14-2.55-2.55-2.55c-1.41,0-2.55,1.14-2.55,2.55c0,1.41,1.14,2.55,2.55,2.55   C249.62,28.04,250.76,26.9,250.76,25.49"/>
	<path class="st7" d="M257.92,26.25c0-1.41-1.14-2.55-2.55-2.55c-1.41,0-2.55,1.14-2.55,2.55c0,1.41,1.14,2.55,2.55,2.55   C256.78,28.8,257.92,27.65,257.92,26.25"/>
	<path class="st6" d="M265.06,27c0-1.4-1.13-2.53-2.54-2.54c-1.4,0-2.54,1.14-2.54,2.54c0,1.4,1.13,2.53,2.54,2.54   C263.92,29.53,265.06,28.4,265.06,27"/>
	<path class="st8" d="M272.22,27.75c0-1.41-1.14-2.54-2.54-2.54c-1.41,0-2.55,1.14-2.55,2.54c0,1.41,1.14,2.54,2.55,2.54   C271.08,30.29,272.22,29.15,272.22,27.75"/>
	<path class="st1" d="M278.93,28.5c0-1.16-0.94-2.11-2.11-2.11c-1.16,0-2.11,0.95-2.11,2.11c0,1.16,0.94,2.11,2.11,2.11   C277.99,30.61,278.93,29.66,278.93,28.5"/>
	<path class="st9" d="M285.7,29.25c0-0.95-0.77-1.72-1.72-1.73c-0.95,0-1.72,0.78-1.73,1.72c0,0.95,0.78,1.72,1.73,1.73   C284.93,30.98,285.7,30.21,285.7,29.25"/>
	<path class="st10" d="M292.21,30c0-0.6-0.48-1.08-1.08-1.08c-0.6,0-1.09,0.48-1.09,1.09c0,0.6,0.49,1.08,1.08,1.09   C291.73,31.09,292.22,30.6,292.21,30"/>
	<path class="st1" d="M187.86,25.31c0-0.61-0.49-1.1-1.1-1.1c-0.6,0-1.1,0.49-1.09,1.1c0,0.61,0.49,1.1,1.09,1.1   C187.37,26.4,187.85,25.92,187.86,25.31"/>
	<path class="st10" d="M186.55,37.75c0-0.61-0.49-1.1-1.1-1.09c-0.61,0-1.1,0.49-1.09,1.09c0,0.61,0.49,1.1,1.09,1.1   C186.06,38.85,186.55,38.36,186.55,37.75"/>
	<path class="st8" d="M195.9,26.06c0-1.1-0.89-1.98-1.99-1.98c-1.09,0-1.97,0.89-1.98,1.98c0,1.09,0.89,1.98,1.99,1.98   C195.01,28.04,195.9,27.15,195.9,26.06"/>
	<path class="st5" d="M203.05,26.81c0-1.09-0.88-1.98-1.98-1.98c-1.1,0-1.99,0.88-1.99,1.98c0,1.1,0.89,1.98,1.98,1.98   C202.17,28.79,203.05,27.91,203.05,26.81"/>
	<path class="st11" d="M209.98,27.56c0-0.97-0.78-1.76-1.76-1.76c-0.97,0-1.77,0.79-1.76,1.76c0,0.98,0.79,1.76,1.76,1.77   C209.19,29.33,209.98,28.53,209.98,27.56"/>
	<path class="st3" d="M216.71,28.32c0-0.74-0.6-1.34-1.34-1.34c-0.74,0-1.34,0.6-1.35,1.35c0,0.74,0.6,1.34,1.34,1.33   C216.12,29.65,216.71,29.06,216.71,28.32"/>
	<path class="st12" d="M224.38,29.07c0.01-1.02-0.83-1.86-1.85-1.86c-1.03,0-1.86,0.83-1.87,1.86c0,1.02,0.84,1.86,1.86,1.85   C223.55,30.93,224.39,30.09,224.38,29.07"/>
	<path class="st6" d="M231.94,29.82c0-1.25-1.01-2.26-2.26-2.26c-1.24,0-2.25,1.01-2.25,2.26c0,1.24,1.01,2.25,2.25,2.25   C230.93,32.08,231.93,31.06,231.94,29.82"/>
	<path class="st5" d="M239.45,30.57c0-1.45-1.17-2.63-2.62-2.62c-1.45,0-2.62,1.17-2.63,2.62c0,1.45,1.17,2.63,2.63,2.62   C238.28,33.19,239.45,32.02,239.45,30.57"/>
	<path class="st7" d="M246.9,31.33c0-1.61-1.3-2.92-2.92-2.92c-1.61,0-2.92,1.31-2.92,2.92c0.01,1.61,1.31,2.92,2.93,2.92   C245.6,34.24,246.91,32.94,246.9,31.33"/>
	<path class="st13" d="M254.05,32.07c0-1.61-1.3-2.92-2.91-2.91c-1.61,0-2.91,1.31-2.91,2.92c0,1.61,1.31,2.91,2.92,2.91   C252.74,34.99,254.05,33.68,254.05,32.07"/>
	<path class="st5" d="M261.19,32.83c0-1.6-1.3-2.9-2.9-2.9c-1.61,0-2.9,1.3-2.9,2.9c0,1.6,1.3,2.9,2.9,2.91   C259.9,35.73,261.2,34.43,261.19,32.83"/>
	<path class="st12" d="M268.3,33.58c0-1.57-1.28-2.85-2.85-2.85c-1.58,0-2.86,1.28-2.86,2.85c-0.01,1.58,1.27,2.86,2.86,2.86   C267.02,36.43,268.3,35.15,268.3,33.58"/>
	<path class="st14" d="M275.15,34.33c-0.01-1.41-1.15-2.55-2.56-2.56c-1.41,0-2.55,1.15-2.55,2.55c0,1.41,1.14,2.56,2.55,2.56   C274,36.88,275.15,35.74,275.15,34.33"/>
	<path class="st15" d="M282.3,35.08c0-1.41-1.14-2.55-2.55-2.55c-1.4,0-2.55,1.14-2.55,2.55c0,1.41,1.14,2.56,2.55,2.55   C281.16,37.63,282.3,36.49,282.3,35.08"/>
	<path class="st13" d="M289.03,35.83c0-1.18-0.95-2.13-2.13-2.13c-1.18,0-2.13,0.96-2.13,2.13c0,1.18,0.96,2.14,2.14,2.13   C288.08,37.96,289.03,37.01,289.03,35.83"/>
	<path class="st10" d="M295.27,36.59c0-0.67-0.54-1.21-1.21-1.21c-0.67,0-1.21,0.54-1.21,1.21c0,0.67,0.54,1.22,1.21,1.22   C294.72,37.8,295.27,37.25,295.27,36.59"/>
	<path class="st8" d="M191.26,31.89c0-0.87-0.7-1.57-1.58-1.57c-0.87,0-1.57,0.71-1.57,1.58c0,0.87,0.71,1.57,1.57,1.57   C190.55,33.46,191.26,32.76,191.26,31.89"/>
	<path class="st6" d="M199.41,32.64c-0.01-1.42-1.16-2.57-2.57-2.57c-1.42,0-2.57,1.15-2.57,2.57c0,1.42,1.15,2.58,2.57,2.57   C198.26,35.22,199.41,34.06,199.41,32.64"/>
	<path class="st11" d="M206.68,33.39c-0.01-1.49-1.21-2.69-2.69-2.69c-1.49,0-2.69,1.2-2.69,2.69c0,1.48,1.2,2.69,2.69,2.69   C205.47,36.08,206.68,34.88,206.68,33.39"/>
	<path class="st11" d="M213.73,34.14c0-1.43-1.16-2.58-2.59-2.58c-1.43,0-2.58,1.16-2.58,2.58c0,1.43,1.16,2.59,2.59,2.59   C212.57,36.73,213.73,35.57,213.73,34.14"/>
	<path class="st16" d="M220.84,34.9c0-1.41-1.14-2.55-2.55-2.54c-1.4,0-2.54,1.14-2.55,2.54c0,1.41,1.14,2.55,2.55,2.55   C219.7,37.44,220.84,36.3,220.84,34.9"/>
	<path class="st12" d="M228.07,35.65c0-1.45-1.17-2.62-2.62-2.62c-1.44,0-2.62,1.18-2.62,2.63c0,1.45,1.18,2.62,2.62,2.62   C226.9,38.27,228.07,37.09,228.07,35.65"/>
	<path class="st6" d="M235.27,36.4c0-1.47-1.19-2.66-2.67-2.66c-1.47,0-2.66,1.19-2.66,2.66c0,1.47,1.19,2.66,2.66,2.66   C234.08,39.06,235.26,37.87,235.27,36.4"/>
	<path class="st4" d="M242.56,37.15c0-1.54-1.26-2.8-2.8-2.8c-1.54,0-2.8,1.26-2.8,2.8c0,1.55,1.26,2.8,2.8,2.8   C241.3,39.95,242.56,38.7,242.56,37.15"/>
	<path class="st6" d="M249.71,37.9c0-1.55-1.26-2.81-2.81-2.8c-1.55,0-2.8,1.26-2.8,2.81c0,1.55,1.26,2.81,2.81,2.81   C248.46,40.71,249.71,39.45,249.71,37.9"/>
	<path class="st6" d="M256.83,38.66c0-1.53-1.24-2.77-2.77-2.76c-1.52,0-2.76,1.24-2.77,2.76c0,1.53,1.24,2.77,2.77,2.76   C255.59,41.42,256.83,40.18,256.83,38.66"/>
	<path class="st3" d="M264.02,39.41c0-1.55-1.26-2.81-2.81-2.81c-1.55,0-2.81,1.26-2.81,2.81c0,1.55,1.26,2.81,2.81,2.81   C262.76,42.22,264.02,40.96,264.02,39.41"/>
	<path class="st17" d="M271.27,40.16c0-1.6-1.3-2.91-2.91-2.91c-1.6,0-2.9,1.3-2.9,2.9c0,1.61,1.3,2.9,2.9,2.9   C269.97,43.07,271.27,41.76,271.27,40.16"/>
	<path class="st18" d="M278.36,40.91c-0.01-1.57-1.27-2.84-2.84-2.84c-1.56,0-2.84,1.27-2.84,2.84c0,1.57,1.27,2.84,2.84,2.84   C277.09,43.75,278.36,42.48,278.36,40.91"/>
	<path class="st3" d="M285.22,41.66c0-1.4-1.14-2.54-2.55-2.54c-1.41,0-2.54,1.14-2.55,2.55c0,1.4,1.14,2.54,2.55,2.55   C284.08,44.21,285.22,43.07,285.22,41.66"/>
	<path class="st3" d="M291.52,42.42c0-0.93-0.76-1.69-1.69-1.69c-0.93,0-1.69,0.75-1.69,1.69c0,0.93,0.76,1.69,1.69,1.69   C290.76,44.1,291.52,43.35,291.52,42.42"/>
	<path class="st8" d="M194.38,38.47c0-0.98-0.79-1.77-1.77-1.77c-0.98,0-1.77,0.79-1.78,1.77c0.01,0.97,0.8,1.77,1.78,1.77   C193.59,40.24,194.38,39.45,194.38,38.47"/>
	<path class="st9" d="M202.24,39.22c0-1.37-1.11-2.48-2.48-2.48c-1.37,0-2.48,1.11-2.48,2.48c0,1.37,1.11,2.48,2.48,2.48   C201.13,41.7,202.24,40.59,202.24,39.22"/>
	<path class="st11" d="M209.5,39.98c0-1.42-1.15-2.58-2.58-2.58c-1.42,0-2.58,1.16-2.58,2.58c0,1.43,1.15,2.58,2.58,2.58   C208.34,42.55,209.49,41.4,209.5,39.98"/>
	<path class="st18" d="M216.84,40.73c0-1.54-1.24-2.78-2.78-2.78c-1.53,0-2.78,1.25-2.78,2.78c0,1.53,1.24,2.78,2.78,2.78   C215.6,43.5,216.85,42.25,216.84,40.73"/>
	<path class="st19" d="M224.12,41.48c0-1.6-1.3-2.9-2.9-2.91c-1.6,0-2.91,1.31-2.91,2.91c0,1.6,1.3,2.9,2.9,2.91   C222.83,44.38,224.13,43.08,224.12,41.48"/>
	<path class="st1" d="M231.18,42.23c0-1.55-1.26-2.81-2.81-2.81c-1.55,0-2.8,1.26-2.8,2.81c0,1.54,1.25,2.8,2.81,2.8   C229.93,45.04,231.18,43.78,231.18,42.23"/>
	<path class="st6" d="M238.37,42.98c0-1.57-1.27-2.85-2.85-2.85c-1.57,0-2.85,1.27-2.85,2.85c0,1.57,1.28,2.85,2.85,2.85   C237.1,45.83,238.38,44.56,238.37,42.98"/>
	<path class="st20" d="M245.49,43.73c0-1.55-1.26-2.81-2.82-2.81c-1.55,0-2.81,1.26-2.81,2.81c0,1.55,1.26,2.81,2.82,2.82   C244.24,46.55,245.5,45.29,245.49,43.73"/>
	<path class="st13" d="M252.64,44.49c0-1.55-1.26-2.81-2.81-2.81c-1.55,0-2.8,1.26-2.81,2.81c0.01,1.55,1.26,2.81,2.81,2.81   C251.38,47.3,252.64,46.04,252.64,44.49"/>
	<path class="st21" d="M259.81,45.24c0-1.56-1.27-2.82-2.82-2.82c-1.55,0-2.82,1.26-2.82,2.82c0,1.56,1.27,2.82,2.82,2.82   C258.54,48.06,259.81,46.8,259.81,45.24"/>
	<path class="st6" d="M267,45.99c0-1.58-1.28-2.87-2.87-2.87c-1.58,0-2.86,1.28-2.87,2.87c0.01,1.58,1.29,2.87,2.87,2.87   C265.72,48.87,267.01,47.58,267,45.99"/>
	<path class="st3" d="M274.11,46.75c0-1.56-1.26-2.83-2.82-2.83c-1.56,0-2.82,1.27-2.82,2.83c0,1.56,1.26,2.83,2.83,2.83   C272.85,49.57,274.11,48.31,274.11,46.75"/>
	<path class="st14" d="M281.11,47.5c0-1.47-1.19-2.67-2.67-2.67c-1.48,0-2.67,1.2-2.67,2.67c0,1.48,1.2,2.67,2.67,2.67   C279.92,50.17,281.11,48.97,281.11,47.5"/>
	<path class="st3" d="M287.64,48.25c0-1.13-0.92-2.04-2.04-2.04c-1.13,0-2.04,0.91-2.04,2.05c0,1.13,0.92,2.04,2.05,2.04   C286.73,50.3,287.64,49.38,287.64,48.25"/>
	<path class="st15" d="M203.76,45.8c0-0.59-0.48-1.07-1.07-1.07c-0.59,0-1.07,0.48-1.07,1.07c0,0.59,0.48,1.07,1.07,1.07   C203.27,46.87,203.76,46.4,203.76,45.8"/>
	<path class="st11" d="M212.33,46.56c0-1.38-1.11-2.49-2.48-2.49c-1.38,0-2.49,1.12-2.49,2.49c0,1.38,1.11,2.49,2.48,2.5   C211.22,49.05,212.33,47.94,212.33,46.56"/>
	<path class="st5" d="M219.91,47.31c0-1.62-1.31-2.92-2.92-2.92c-1.62,0-2.93,1.31-2.92,2.92c-0.01,1.62,1.31,2.92,2.92,2.92   C218.61,50.23,219.91,48.92,219.91,47.31"/>
	<path class="st9" d="M226.91,48.07c-0.01-1.53-1.24-2.77-2.77-2.77c-1.52,0-2.76,1.24-2.76,2.77c0,1.53,1.24,2.76,2.77,2.76   C225.67,50.83,226.91,49.59,226.91,48.07"/>
	<path class="st8" d="M234.12,48.82c0-1.55-1.27-2.82-2.82-2.82c-1.56,0-2.82,1.27-2.82,2.82c0,1.56,1.26,2.82,2.82,2.82   C232.85,51.64,234.12,50.38,234.12,48.82"/>
	<path class="st14" d="M241.23,49.57c-0.01-1.53-1.25-2.78-2.78-2.78c-1.53,0-2.78,1.25-2.78,2.78c0,1.53,1.24,2.78,2.78,2.78   C239.99,52.35,241.24,51.1,241.23,49.57"/>
	<path class="st12" d="M248.41,50.33c0-1.55-1.26-2.81-2.81-2.81c-1.55,0-2.81,1.26-2.81,2.81c0,1.56,1.26,2.81,2.81,2.81   C247.15,53.14,248.41,51.87,248.41,50.33"/>
	<path class="st6" d="M255.57,51.07c0-1.55-1.26-2.8-2.81-2.8c-1.55,0-2.81,1.26-2.81,2.81c0,1.55,1.26,2.8,2.81,2.8   C254.31,53.88,255.57,52.63,255.57,51.07"/>
	<path class="st22" d="M262.71,51.83c0-1.55-1.26-2.81-2.8-2.81c-1.55,0-2.81,1.26-2.81,2.81c0,1.55,1.26,2.8,2.81,2.81   C261.46,54.63,262.71,53.38,262.71,51.83"/>
	<path class="st8" d="M269.89,52.58c0-1.56-1.27-2.82-2.83-2.82c-1.56,0-2.83,1.26-2.83,2.82c0,1.57,1.27,2.83,2.83,2.83   C268.62,55.41,269.89,54.14,269.89,52.58"/>
	<path class="st3" d="M277,53.33c0-1.53-1.25-2.78-2.78-2.78c-1.54,0-2.78,1.24-2.78,2.77c0,1.54,1.24,2.78,2.77,2.78   C275.75,56.11,277,54.87,277,53.33"/>
	<path class="st7" d="M284.05,54.08c0-1.48-1.2-2.67-2.68-2.68c-1.48,0-2.68,1.2-2.68,2.68c0,1.48,1.2,2.68,2.68,2.68   C282.85,56.76,284.05,55.56,284.05,54.08"/>
	<path class="st1" d="M289.84,54.84c0-0.73-0.59-1.32-1.32-1.32c-0.72,0-1.31,0.59-1.31,1.31c0,0.72,0.58,1.32,1.31,1.32   C289.25,56.15,289.83,55.56,289.84,54.84"/>
	<path class="st15" d="M206.79,52.4c0-0.65-0.52-1.18-1.18-1.18c-0.65,0-1.18,0.53-1.18,1.18c0,0.65,0.53,1.18,1.18,1.18   C206.26,53.57,206.79,53.04,206.79,52.4"/>
	<path class="st11" d="M215.41,53.15c0-1.46-1.18-2.64-2.64-2.64c-1.46,0-2.64,1.18-2.64,2.64c-0.01,1.46,1.18,2.64,2.64,2.64   C214.22,55.79,215.41,54.61,215.41,53.15"/>
	<path class="st11" d="M222.69,53.9c0-1.53-1.24-2.77-2.77-2.77c-1.52,0-2.77,1.24-2.77,2.76c0,1.53,1.24,2.77,2.77,2.77   C221.44,56.67,222.68,55.43,222.69,53.9"/>
	<path class="st3" d="M229.88,54.65c0-1.55-1.26-2.81-2.81-2.81c-1.55,0-2.81,1.26-2.81,2.81c0,1.55,1.26,2.81,2.81,2.81   C228.62,57.46,229.88,56.2,229.88,54.65"/>
	<path class="st4" d="M237.03,55.4c0-1.55-1.26-2.81-2.8-2.81c-1.55,0-2.81,1.26-2.81,2.81c0,1.55,1.26,2.81,2.81,2.81   C235.78,58.21,237.03,56.95,237.03,55.4"/>
	<path class="st6" d="M244.18,56.15c0-1.55-1.26-2.81-2.81-2.81c-1.55,0-2.8,1.26-2.8,2.81c0,1.55,1.26,2.81,2.8,2.81   C242.93,58.96,244.18,57.7,244.18,56.15"/>
	<path class="st5" d="M251.34,56.91c0-1.55-1.26-2.81-2.81-2.81c-1.55,0-2.8,1.26-2.8,2.81c0,1.55,1.26,2.81,2.8,2.81   C250.08,59.72,251.34,58.46,251.34,56.91"/>
	<path class="st8" d="M258.49,57.66c0-1.55-1.26-2.81-2.81-2.81c-1.55,0-2.81,1.26-2.81,2.81c0.01,1.55,1.26,2.8,2.81,2.8   C257.23,60.46,258.49,59.21,258.49,57.66"/>
	<path class="st5" d="M265.64,58.41c0-1.55-1.25-2.81-2.8-2.81c-1.55,0-2.81,1.26-2.81,2.81c0,1.55,1.26,2.81,2.81,2.81   C264.39,61.22,265.64,59.96,265.64,58.41"/>
	<path class="st15" d="M272.8,59.16c0-1.55-1.26-2.81-2.81-2.81c-1.56,0-2.82,1.26-2.82,2.81c0,1.56,1.27,2.82,2.82,2.82   C271.54,61.97,272.8,60.72,272.8,59.16"/>
	<path class="st18" d="M279.93,59.91c0-1.54-1.25-2.79-2.79-2.79c-1.54,0-2.8,1.25-2.79,2.79c0,1.54,1.25,2.8,2.79,2.8   C278.68,62.71,279.93,61.46,279.93,59.91"/>
	<path class="st18" d="M296.94,68.01c0-1.42-1.15-2.57-2.57-2.57c-1.42,0-2.57,1.15-2.57,2.57c0,1.42,1.15,2.57,2.57,2.57   C295.79,70.58,296.95,69.43,296.94,68.01"/>
	<path class="st18" d="M260.26,76.64c0-1.64-1.32-2.96-2.96-2.96c-1.63,0-2.96,1.32-2.96,2.96c0,1.63,1.32,2.96,2.96,2.96   C258.93,79.6,260.26,78.27,260.26,76.64"/>
	<path class="st23" d="M286.93,60.66c0-1.46-1.18-2.64-2.63-2.64c-1.46,0-2.64,1.18-2.64,2.64c0,1.46,1.18,2.64,2.64,2.64   C285.75,63.31,286.93,62.13,286.93,60.66"/>
	<path class="st15" d="M293.49,61.42c0-1.13-0.92-2.06-2.05-2.05c-1.13,0-2.05,0.92-2.05,2.05c0,1.14,0.92,2.05,2.05,2.05   C292.58,63.47,293.49,62.55,293.49,61.42"/>
	<path class="st1" d="M299.79,62.17c0-0.66-0.53-1.19-1.19-1.19c-0.66,0-1.2,0.54-1.2,1.19c0,0.66,0.53,1.19,1.19,1.2   C299.26,63.36,299.79,62.83,299.79,62.17"/>
	<path class="st15" d="M209.83,58.98c0-0.71-0.58-1.29-1.29-1.29c-0.71,0-1.29,0.58-1.29,1.29c0,0.71,0.57,1.29,1.29,1.29   C209.25,60.27,209.83,59.69,209.83,58.98"/>
	<path class="st1" d="M205.81,65.31c0-0.71-0.58-1.29-1.29-1.29c-0.71,0-1.3,0.58-1.29,1.29c0,0.71,0.58,1.29,1.29,1.29   C205.23,66.61,205.81,66.03,205.81,65.31"/>
	<path class="st3" d="M218.29,59.73c0-1.43-1.17-2.59-2.6-2.59c-1.43,0-2.6,1.16-2.6,2.6c0,1.43,1.16,2.59,2.59,2.6   C217.12,62.32,218.29,61.16,218.29,59.73"/>
	<path class="st11" d="M225.67,60.48c0-1.56-1.26-2.83-2.83-2.83c-1.56,0-2.82,1.27-2.82,2.83c0,1.56,1.26,2.82,2.82,2.82   C224.4,63.31,225.66,62.04,225.67,60.48"/>
	<path class="st17" d="M232.7,61.23c0-1.49-1.21-2.71-2.7-2.71c-1.5,0-2.71,1.21-2.71,2.71c0,1.5,1.21,2.71,2.71,2.71   C231.49,63.94,232.7,62.73,232.7,61.23"/>
	<path class="st5" d="M239.95,61.99c0-1.55-1.26-2.81-2.81-2.81c-1.55,0-2.8,1.26-2.81,2.81c0,1.55,1.26,2.8,2.81,2.81   C238.7,64.79,239.95,63.53,239.95,61.99"/>
	<path class="st20" d="M247.11,62.74c0-1.55-1.26-2.81-2.81-2.81c-1.55,0-2.81,1.26-2.8,2.81c0,1.55,1.26,2.81,2.81,2.81   C245.85,65.55,247.11,64.29,247.11,62.74"/>
	<path class="st6" d="M254.26,63.49c0-1.55-1.26-2.8-2.81-2.8c-1.56,0-2.81,1.26-2.81,2.81c-0.01,1.55,1.26,2.8,2.8,2.8   C253,66.3,254.26,65.04,254.26,63.49"/>
	<path class="st5" d="M261.41,64.24c0-1.55-1.26-2.81-2.8-2.81c-1.55,0-2.81,1.26-2.81,2.81c0,1.55,1.25,2.81,2.8,2.81   C260.16,67.05,261.41,65.79,261.41,64.24"/>
	<path class="st6" d="M268.52,64.99c0-1.52-1.24-2.76-2.77-2.76c-1.52,0-2.76,1.24-2.76,2.76c0,1.52,1.24,2.76,2.76,2.76   C267.28,67.75,268.52,66.52,268.52,64.99"/>
	<path class="st8" d="M275.74,65.75c0-1.56-1.26-2.83-2.83-2.83c-1.56,0-2.83,1.27-2.83,2.83c0,1.56,1.27,2.83,2.83,2.83   C274.47,68.57,275.74,67.31,275.74,65.75"/>
	<path class="st3" d="M282.91,66.5c0-1.57-1.27-2.84-2.85-2.84c-1.57,0-2.85,1.27-2.85,2.84c0,1.57,1.27,2.84,2.85,2.85   C281.64,69.34,282.91,68.07,282.91,66.5"/>
	<path class="st24" d="M289.79,67.25c0-1.42-1.15-2.57-2.57-2.57c-1.42,0-2.57,1.15-2.57,2.57c0,1.42,1.15,2.57,2.57,2.57   C288.64,69.82,289.79,68.67,289.79,67.25"/>
	<path class="st3" d="M302.6,68.75c0-0.59-0.48-1.07-1.08-1.08c-0.59,0-1.08,0.49-1.07,1.08c0,0.6,0.48,1.07,1.07,1.07   C302.12,69.82,302.6,69.34,302.6,68.75"/>
	<path class="st3" d="M213.44,65.54c0-1.33-1.07-2.4-2.4-2.4c-1.33,0-2.4,1.07-2.41,2.4c0.01,1.32,1.08,2.4,2.4,2.4   C212.37,67.94,213.44,66.87,213.44,65.54"/>
	<path class="st18" d="M221.25,66.31c0-1.46-1.18-2.63-2.63-2.64c-1.46,0-2.64,1.18-2.64,2.64c-0.01,1.46,1.18,2.64,2.64,2.64   C220.07,68.95,221.25,67.77,221.25,66.31"/>
	<path class="st11" d="M228.55,67.06c0-1.54-1.24-2.78-2.79-2.78c-1.53,0-2.78,1.24-2.78,2.78c0,1.54,1.25,2.78,2.78,2.79   C227.31,69.84,228.55,68.6,228.55,67.06"/>
	<path class="st16" d="M235.72,67.81c0-1.54-1.26-2.8-2.81-2.8c-1.54,0-2.81,1.25-2.8,2.81c0,1.55,1.25,2.81,2.81,2.81   C234.47,70.62,235.73,69.37,235.72,67.81"/>
	<path class="st25" d="M242.88,68.57c0-1.55-1.26-2.81-2.81-2.81c-1.54,0-2.8,1.26-2.81,2.81c0,1.55,1.26,2.8,2.8,2.81   C241.62,71.37,242.88,70.11,242.88,68.57"/>
	<path class="st3" d="M250.03,69.32c0-1.55-1.26-2.81-2.81-2.81c-1.55,0-2.8,1.26-2.8,2.81s1.26,2.81,2.8,2.81   C248.78,72.12,250.03,70.87,250.03,69.32"/>
	<path class="st17" d="M257.18,70.07c-0.01-1.55-1.26-2.8-2.81-2.8c-1.55,0-2.81,1.26-2.81,2.81c0,1.55,1.25,2.8,2.81,2.8   C255.93,72.87,257.19,71.62,257.18,70.07"/>
	<path class="st26" d="M264.32,70.82c0-1.54-1.25-2.79-2.79-2.79c-1.54,0-2.79,1.25-2.79,2.79c0,1.54,1.25,2.79,2.79,2.79   C263.07,73.61,264.32,72.36,264.32,70.82"/>
	<path class="st15" d="M271.47,71.57c0-1.54-1.25-2.79-2.79-2.79c-1.54,0-2.79,1.25-2.79,2.79c0.01,1.54,1.25,2.8,2.79,2.79   C270.23,74.36,271.47,73.11,271.47,71.57"/>
	<path class="st5" d="M278.73,72.33c0-1.6-1.29-2.9-2.9-2.9c-1.6,0-2.89,1.3-2.89,2.9c0,1.6,1.3,2.9,2.9,2.9   C277.44,75.22,278.73,73.92,278.73,72.33"/>
	<path class="st25" d="M285.91,73.08c0-1.61-1.31-2.91-2.92-2.91c-1.61,0-2.92,1.3-2.91,2.91c-0.01,1.61,1.3,2.92,2.91,2.92   C284.6,75.99,285.91,74.69,285.91,73.08"/>
	<path class="st14" d="M292.62,73.83c0-1.37-1.11-2.49-2.48-2.48c-1.37,0-2.48,1.11-2.48,2.48c0,1.37,1.11,2.48,2.48,2.48   C291.51,76.31,292.62,75.2,292.62,73.83"/>
	<path class="st1" d="M298.63,74.58c0-0.74-0.6-1.33-1.34-1.33c-0.74,0-1.33,0.59-1.33,1.33c0,0.74,0.6,1.33,1.33,1.33   C298.03,75.91,298.63,75.32,298.63,74.58"/>
	<path class="st3" d="M215.8,72.14c0-0.78-0.63-1.41-1.41-1.41c-0.78,0-1.42,0.63-1.42,1.41c0,0.78,0.63,1.41,1.42,1.41   C215.17,73.56,215.8,72.92,215.8,72.14"/>
	<path class="st16" d="M224.14,72.89c0-1.44-1.16-2.6-2.6-2.6c-1.43,0-2.6,1.17-2.59,2.6c0,1.44,1.16,2.6,2.59,2.6   C222.97,75.49,224.13,74.33,224.14,72.89"/>
	<path class="st11" d="M231.45,73.64c0-1.52-1.24-2.76-2.76-2.76c-1.52,0-2.76,1.24-2.75,2.76c0,1.52,1.23,2.76,2.75,2.76   C230.21,76.4,231.45,75.17,231.45,73.64"/>
	<path class="st5" d="M238.65,74.4c0-1.55-1.26-2.81-2.8-2.81c-1.55,0-2.81,1.26-2.81,2.8c0,1.55,1.26,2.8,2.8,2.8   C237.39,77.2,238.65,75.94,238.65,74.4"/>
	<path class="st26" d="M245.8,75.15c0-1.55-1.25-2.81-2.81-2.81c-1.55,0-2.8,1.26-2.8,2.81c0,1.55,1.26,2.8,2.8,2.81   C244.55,77.95,245.8,76.7,245.8,75.15"/>
	<path class="st26" d="M252.96,75.9c0.01-1.55-1.26-2.81-2.81-2.8c-1.55-0.01-2.8,1.25-2.8,2.8c0,1.55,1.26,2.81,2.81,2.81   C251.69,78.7,252.95,77.45,252.96,75.9"/>
	<path class="st17" d="M267.23,77.4c0-1.53-1.24-2.77-2.77-2.77c-1.53,0-2.77,1.24-2.77,2.77c0,1.53,1.24,2.77,2.77,2.77   C265.99,80.17,267.23,78.93,267.23,77.4"/>
	<path class="st25" d="M274.45,78.16c0-1.57-1.27-2.84-2.84-2.84c-1.57,0-2.84,1.27-2.84,2.83c0,1.57,1.27,2.84,2.83,2.84   C273.17,80.99,274.45,79.72,274.45,78.16"/>
	<path class="st6" d="M281.61,78.9c0-1.57-1.28-2.85-2.86-2.85c-1.57,0-2.85,1.28-2.85,2.86c0,1.57,1.28,2.85,2.86,2.85   C280.34,81.76,281.62,80.48,281.61,78.9"/>
	<path class="st4" d="M288.16,79.66c0-1.24-1-2.25-2.24-2.25c-1.24,0-2.24,1-2.24,2.25c0,1.23,1.01,2.24,2.24,2.24   C287.15,81.9,288.16,80.9,288.16,79.66"/>
	<path class="st15" d="M294.54,80.41c0-0.82-0.66-1.48-1.48-1.48c-0.82,0-1.48,0.66-1.48,1.48c0,0.82,0.67,1.48,1.48,1.48   C293.88,81.89,294.54,81.23,294.54,80.41"/>
	<path class="st5" d="M218.57,78.72c0-0.7-0.56-1.26-1.26-1.26c-0.7,0-1.26,0.57-1.26,1.26c0,0.69,0.56,1.26,1.26,1.26   C218.01,79.98,218.57,79.42,218.57,78.72"/>
	<path class="st1" d="M209.01,71.35c0-0.7-0.56-1.26-1.26-1.26c-0.7,0-1.26,0.57-1.26,1.26c0,0.69,0.56,1.26,1.26,1.26   C208.45,72.61,209.01,72.04,209.01,71.35"/>
	<path class="st1" d="M226.96,79.47c0-1.38-1.12-2.5-2.49-2.49c-1.38,0-2.5,1.12-2.5,2.49c0,1.38,1.12,2.5,2.5,2.5   C225.84,81.97,226.96,80.85,226.96,79.47"/>
	<path class="st11" d="M234.38,80.23c0-1.53-1.23-2.77-2.77-2.77c-1.53,0-2.77,1.24-2.77,2.77c0,1.53,1.24,2.76,2.76,2.76   C233.15,82.99,234.38,81.75,234.38,80.23"/>
	<path class="st11" d="M241.35,80.98c0-1.42-1.15-2.58-2.58-2.58c-1.43,0-2.58,1.16-2.58,2.58c0,1.42,1.16,2.58,2.58,2.58   C240.2,83.55,241.35,82.4,241.35,80.98"/>
	<path class="st11" d="M248.26,81.73c0-1.29-1.04-2.34-2.34-2.34c-1.29,0-2.34,1.05-2.34,2.34c0,1.29,1.05,2.34,2.34,2.34   C247.21,84.06,248.26,83.02,248.26,81.73"/>
	<path class="st11" d="M255.66,82.48c0-1.42-1.16-2.58-2.58-2.58c-1.43,0-2.58,1.15-2.58,2.58c0,1.43,1.16,2.58,2.58,2.58   C254.5,85.06,255.65,83.9,255.66,82.48"/>
	<path class="st26" d="M263,83.23c0-1.53-1.25-2.78-2.78-2.78c-1.53,0-2.77,1.24-2.77,2.78c0,1.53,1.24,2.78,2.78,2.78   C261.76,86.01,263,84.77,263,83.23"/>
	<path class="st5" d="M270.2,83.98c0-1.56-1.27-2.82-2.82-2.82c-1.57,0-2.83,1.26-2.83,2.82c0,1.56,1.27,2.83,2.83,2.83   C268.94,86.81,270.21,85.54,270.2,83.98"/>
	<path class="st21" d="M277.34,84.74c0-1.55-1.26-2.81-2.81-2.81c-1.55,0-2.82,1.26-2.82,2.81c0,1.55,1.26,2.82,2.82,2.82   C276.09,87.55,277.34,86.29,277.34,84.74"/>
	<path class="st3" d="M284.31,85.48c0-1.45-1.17-2.63-2.63-2.62c-1.45,0-2.63,1.18-2.63,2.63c0,1.45,1.18,2.63,2.63,2.62   C283.14,88.11,284.31,86.94,284.31,85.48"/>
	<path class="st14" d="M290.01,86.24c0-0.65-0.53-1.17-1.18-1.18c-0.65,0-1.18,0.53-1.17,1.18c0,0.65,0.53,1.18,1.17,1.18   C289.48,87.42,290.02,86.89,290.01,86.24"/>
	<path class="st10" d="M221.27,85.3c0-0.57-0.46-1.03-1.04-1.03c-0.57,0-1.03,0.46-1.03,1.04c0,0.57,0.46,1.03,1.04,1.03   C220.8,86.34,221.27,85.87,221.27,85.3"/>
	<path class="st1" d="M229.99,86.05c0.01-1.44-1.17-2.6-2.6-2.6c-1.44,0-2.61,1.17-2.61,2.6c0,1.44,1.17,2.61,2.6,2.61   C228.83,88.66,229.99,87.49,229.99,86.05"/>
	<path class="st1" d="M237.11,86.8c0-1.42-1.15-2.57-2.57-2.57c-1.43,0-2.57,1.15-2.57,2.57c0,1.42,1.15,2.57,2.57,2.57   C235.96,89.38,237.11,88.22,237.11,86.8"/>
	<path class="st10" d="M242.65,87.56c0-0.53-0.43-0.96-0.96-0.96c-0.53,0-0.96,0.43-0.96,0.96c0,0.53,0.43,0.96,0.96,0.96   C242.22,88.52,242.65,88.08,242.65,87.56"/>
	<path class="st2" d="M249.93,88.31c0-0.6-0.49-1.09-1.09-1.09c-0.6,0-1.09,0.49-1.09,1.09c0,0.6,0.49,1.09,1.09,1.09   C249.45,89.4,249.93,88.91,249.93,88.31"/>
	<path class="st11" d="M258.58,89.06c0-1.43-1.16-2.58-2.58-2.58c-1.43,0-2.58,1.15-2.58,2.58c0,1.42,1.16,2.58,2.58,2.58   C257.42,91.64,258.57,90.49,258.58,89.06"/>
	<path class="st19" d="M265.99,89.81c0-1.56-1.27-2.83-2.84-2.84c-1.57,0.01-2.84,1.28-2.84,2.84s1.27,2.84,2.83,2.84   C264.72,92.65,265.99,91.38,265.99,89.81"/>
	<path class="st6" d="M273.13,90.56c0-1.55-1.26-2.82-2.82-2.82c-1.56,0-2.82,1.26-2.82,2.82c0,1.56,1.26,2.82,2.82,2.82   C271.86,93.39,273.12,92.12,273.13,90.56"/>
	<path class="st5" d="M280.33,91.31c0-1.58-1.28-2.87-2.87-2.87c-1.59,0-2.87,1.28-2.87,2.87c-0.01,1.58,1.28,2.87,2.87,2.87   C279.04,94.19,280.33,92.9,280.33,91.31"/>
	<path class="st27" d="M287.16,92.07c0-1.41-1.14-2.55-2.55-2.55c-1.41,0-2.55,1.14-2.55,2.55c0,1.41,1.14,2.55,2.55,2.55   C286.02,94.62,287.16,93.47,287.16,92.07"/>
	<path class="st15" d="M292.83,92.82c0-0.59-0.48-1.07-1.06-1.07c-0.59,0-1.07,0.48-1.07,1.07c0,0.59,0.48,1.07,1.07,1.07   C292.35,93.89,292.83,93.41,292.83,92.82"/>
	<path class="st10" d="M224.43,91.88c0-0.7-0.57-1.27-1.27-1.27c-0.7,0.01-1.27,0.57-1.27,1.27c0,0.7,0.57,1.27,1.27,1.27   C223.86,93.15,224.43,92.59,224.43,91.88"/>
	<path class="st10" d="M231.86,92.64c0-0.86-0.69-1.55-1.55-1.55c-0.85,0-1.55,0.69-1.54,1.55c0,0.85,0.69,1.55,1.55,1.55   C231.17,94.18,231.86,93.49,231.86,92.64"/>
	<path class="st3" d="M238.58,93.39c0-0.62-0.5-1.12-1.13-1.12c-0.61,0-1.12,0.5-1.11,1.12c0,0.62,0.49,1.12,1.11,1.12   C238.08,94.5,238.58,94,238.58,93.39"/>
	<path class="st11" d="M261.45,95.64c0-1.4-1.13-2.54-2.53-2.54c-1.4,0-2.53,1.13-2.54,2.54c0,1.4,1.14,2.53,2.54,2.53   C260.32,98.18,261.46,97.04,261.45,95.64"/>
	<path class="st14" d="M268.71,96.39c0-1.46-1.18-2.64-2.64-2.64c-1.46,0-2.65,1.18-2.64,2.64c0,1.45,1.19,2.64,2.64,2.64   C267.53,99.03,268.72,97.85,268.71,96.39"/>
	<path class="st22" d="M275.85,97.15c0-1.45-1.17-2.63-2.63-2.63c-1.45,0-2.62,1.17-2.63,2.63c0,1.45,1.18,2.62,2.63,2.63   C274.68,99.77,275.85,98.59,275.85,97.15"/>
	<path class="st14" d="M282.92,97.9c0-1.4-1.14-2.54-2.54-2.54c-1.4,0-2.54,1.14-2.54,2.54c0,1.4,1.14,2.54,2.54,2.54   C281.78,100.44,282.92,99.3,282.92,97.9"/>
	<path class="st3" d="M289.64,98.65c0-1.16-0.94-2.11-2.11-2.11c-1.16,0-2.1,0.94-2.1,2.11c0,1.16,0.94,2.1,2.1,2.1   C288.7,100.75,289.64,99.81,289.64,98.65"/>
	<path class="st15" d="M295.76,99.4c0-0.6-0.48-1.08-1.08-1.07c-0.59,0-1.07,0.48-1.07,1.07c0,0.6,0.48,1.08,1.07,1.07   C295.28,100.47,295.75,99.99,295.76,99.4"/>
	<path class="st22" d="M255.73,101.47c0-0.58-0.47-1.04-1.04-1.04c-0.57,0-1.04,0.47-1.04,1.04c0,0.58,0.46,1.04,1.04,1.04   C255.27,102.51,255.73,102.04,255.73,101.47"/>
	<path class="st11" d="M263.06,102.22c0-0.67-0.54-1.22-1.22-1.22c-0.67,0-1.23,0.55-1.22,1.23c0,0.67,0.55,1.22,1.22,1.22   C262.52,103.45,263.07,102.89,263.06,102.22"/>
	<path class="st20" d="M270.44,102.97c0-0.79-0.65-1.44-1.44-1.44c-0.79,0-1.44,0.64-1.44,1.44c0,0.79,0.65,1.44,1.44,1.44   C269.79,104.41,270.44,103.77,270.44,102.97"/>
	<path class="st14" d="M277.62,103.73c0-0.81-0.66-1.47-1.47-1.47c-0.81,0-1.46,0.66-1.46,1.47c0,0.81,0.65,1.47,1.46,1.47   C276.96,105.19,277.62,104.54,277.62,103.73"/>
	<path class="st20" d="M284.8,104.48c0-0.82-0.67-1.49-1.5-1.49c-0.82,0-1.49,0.66-1.49,1.49c0,0.82,0.67,1.49,1.5,1.49   C284.13,105.97,284.8,105.3,284.8,104.48"/>
	<path class="st15" d="M291.53,105.23c0-0.59-0.48-1.07-1.07-1.07c-0.59,0-1.07,0.49-1.07,1.08c0,0.59,0.48,1.07,1.07,1.07   C291.05,106.3,291.53,105.83,291.53,105.23"/>
	<path class="st28" d="M59.82,89.01l-6.33-22.83c-0.39-1.55-1.27-2.4-2.83-2.4h-8.12c-0.22,0-0.37,0.15-0.37,0.37v2.47   c0,0.22,0.15,0.31,0.37,0.33l2.23,0.33l-6.01,21.65c-0.06,0.21,0.04,0.37,0.26,0.37h3.39c0.22,0,0.42-0.16,0.48-0.37l1.62-5.83   h9.53l1.63,5.83c0.07,0.22,0.26,0.37,0.48,0.37h3.4C59.78,89.29,59.85,89.13,59.82,89.01 M45.56,79.3l3.22-11.6h1.01l3.22,11.6   H45.56z"/>
	<path class="st28" d="M82.9,89.01l-6.33-22.83c-0.39-1.55-1.27-2.4-2.83-2.4h-8.12c-0.22,0-0.37,0.15-0.37,0.37v2.47   c0,0.22,0.15,0.31,0.37,0.33l2.23,0.33l-6.01,21.65c-0.06,0.21,0.04,0.37,0.26,0.37h3.39c0.22,0,0.42-0.16,0.48-0.37l1.62-5.83   h9.53l1.63,5.83c0.07,0.22,0.26,0.37,0.48,0.37h3.4C82.86,89.29,82.93,89.13,82.9,89.01 M68.64,79.3l3.22-11.6h1.01l3.22,11.6   H68.64z"/>
	<path class="st28" d="M144.54,89.01l-6.33-22.83c-0.39-1.55-1.27-2.4-2.83-2.4h-8.12c-0.22,0-0.37,0.15-0.37,0.37v2.47   c0,0.22,0.15,0.31,0.37,0.33l2.23,0.33l-6.01,21.65c-0.06,0.21,0.04,0.37,0.26,0.37h3.39c0.22,0,0.42-0.16,0.48-0.37l1.62-5.83   h9.53l1.63,5.83c0.07,0.22,0.26,0.37,0.48,0.37h3.4C144.51,89.29,144.57,89.13,144.54,89.01 M130.29,79.3l3.22-11.6h1.01l3.22,11.6   H130.29z"/>
	<path class="st28" d="M121.58,85.3L121.58,85.3L121.58,85.3l-8.81,0V64.1c0-0.18-0.14-0.32-0.32-0.32h-3.58   c-0.18,0-0.32,0.15-0.32,0.32v0v0v24.86c0,0.18,0.14,0.32,0.32,0.32h12.7c0.18,0,0.32-0.14,0.32-0.32v-3.35   C121.9,85.45,121.76,85.3,121.58,85.3"/>
	<path class="st28" d="M179.53,63.78h-7.85c-0.18,0-0.32,0.15-0.32,0.32v0v0v24.86c0,0.18,0.14,0.32,0.32,0.33h0h0h7.85   c5.87,0,9.68-4.19,9.68-10.77v-3.98C189.21,67.97,185.4,63.78,179.53,63.78 M184.98,78.53c0,3.85-1.96,6.85-5.45,6.85h-3.95V67.69   h3.95c3.49,0,5.45,3.01,5.45,6.85V78.53z"/>
	<path class="st28" d="M166.16,63.78L166.16,63.78L166.16,63.78h-3.56c-0.18,0-0.32,0.14-0.32,0.32v0v0v19.48l-9.21-19.53   c0,0-0.13-0.27-0.38-0.27h-5.13c-0.18,0-0.32,0.14-0.32,0.32v0v0v24.86c0,0.18,0.14,0.32,0.32,0.33h0h0h3.55   c0.18,0,0.32-0.15,0.32-0.32v0V69.84l9.26,19.29c0,0,0.09,0.16,0.22,0.16h5.25c0.18,0,0.32-0.15,0.32-0.32v0V64.1   C166.48,63.93,166.34,63.78,166.16,63.78"/>
	<path class="st28" d="M105.39,89l-0.4-2.66c0,0-0.03-0.19-0.24-0.19c0,0-0.43,0.04-0.71,0.04c-0.99,0-1.66-0.56-2.12-1.27   l-3.77-5.95c3.17-0.88,5.22-3.52,5.22-7.61c0-4.54-3.1-7.58-7.36-7.58h-9.65v0h-2.38c-0.3,0-0.51,0.2-0.51,0.51v2.21   c0,0.3,0.2,0.46,0.51,0.46l2.38,0.33v21.69c0,0.18,0.14,0.32,0.32,0.32h0h0h3.44c0.18,0,0.32-0.14,0.32-0.32v0v0v-9.68h3.35   l4.33,7.22c1.27,2.12,2.71,3.17,4.65,3.17c1.22,0,2.1-0.26,2.46-0.39C105.24,89.29,105.41,89.2,105.39,89 M96.01,75.58h-5.57v-7.89   h5.57c1.83,0,3.31,1.37,3.31,3.84C99.32,74.31,97.77,75.58,96.01,75.58"/>
	<path class="st28" d="M23.82,70.17c0-1.88,1.62-3.2,4.37-3.2c1.35,0,2.74,0.11,3.67,0.33l0.47,3.13c0.04,0.22,0.11,0.37,0.4,0.37   h2.25c0.22,0,0.36-0.15,0.36-0.37l0.22-5.05c0.04-0.66-0.29-0.91-0.99-1.13c-2.19-0.7-4.27-0.99-6.61-0.99   c-5.63,0-8.84,3.07-8.84,6.88c0,8.78,13.02,6.63,13.02,12.7c0,1.12-1.09,3.12-4.42,3.12c-1.9,0-3.6-0.31-4.88-1.11l-0.3-3.06   c-0.04-0.18-0.04-0.4-0.33-0.4h-2.34c-0.25,0-0.4,0.15-0.4,0.44l-0.18,5.19c-0.04,0.51,0.07,0.8,0.55,1.1   c1.9,1.17,4.76,1.68,7.58,1.68c5.74,0,9.14-2.96,9.14-7.65C36.57,74.05,23.82,75.34,23.82,70.17"/>
</g>
</svg>