<?xml version="1.0" encoding="UTF-8"?>
<svg id="Ebene_1" xmlns="http://www.w3.org/2000/svg" version="1.1" viewBox="0 0 1612.1 546.8">
  <!-- Generator: Adobe Illustrator 29.2.1, SVG Export Plug-In . SVG Version: 2.1.0 Build 116)  -->
  <defs>
    <style>
      .st0 {
        fill: #fff;
      }
    </style>
  </defs>
  <g>
    <path class="st0" d="M539.5,420.1h-17l-4.5,12.9h-6.5l16.2-45h6.6l16.2,45h-6.6l-4.5-12.9h0ZM531,394.2s-1,4.1-1.8,6.4l-5,14.3h13.6l-5-14.3c-.8-2.3-1.7-6.4-1.7-6.4h-.1Z"/>
    <path class="st0" d="M592.7,388h15.8c7.6,0,13.1,4.2,13.1,11.5s-2.2,7.9-5.6,9.7h0c4.7,1.5,7.4,6,7.4,11,0,8.5-6.6,12.8-14.5,12.8h-16.1v-45h0ZM608.5,406.9c4.1,0,6.6-2.9,6.6-6.8s-2.4-6.6-6.8-6.6h-9.3v13.5h9.4ZM609.2,427.5c4.8,0,7.7-3.1,7.7-7.6s-3.1-7.7-7.8-7.7h-10.1v15.4h10.1Z"/>
    <path class="st0" d="M641.4,400.8h6v5.6c0,1.3-.1,2.4-.1,2.4h.1c1.5-4.7,5.2-8.4,10.2-8.4s1.6.1,1.6.1v6.1s-.8-.2-1.8-.2c-4,0-7.6,2.8-9,7.6-.6,1.9-.8,3.8-.8,5.8v13.2h-6.2v-32.3h0Z"/>
    <path class="st0" d="M691.7,412.9h1.4v-.6c0-5.3-3-7.1-7.1-7.1s-9,3.1-9,3.1l-2.5-4.5s4.7-3.8,12-3.8,12.8,4.5,12.8,12.6v20.4h-5.7v-3.1c0-1.5.1-2.5.1-2.5h-.1s-2.6,6.4-10.3,6.4-11-3.4-11-9.8c0-10.6,14-11.1,19.4-11.1h0ZM684.6,428.8c5.2,0,8.6-5.5,8.6-10.3v-1h-1.6c-4.7,0-13.1.3-13.1,6.1s2,5.2,6.1,5.2h0Z"/>
    <path class="st0" d="M718.1,400.8h6v4.3c0,1.3-.1,2.4-.1,2.4h.1c1.3-2.8,5.1-7.4,12.1-7.4s11.1,4.1,11.1,12.4v20.6h-6.2v-19.2c0-4.5-1-8.1-6.1-8.1s-8.9,3.2-10.2,7.9c-.4,1.3-.5,2.7-.5,4.3v15.1h-6.2v-32.3h0Z"/>
    <path class="st0" d="M778.6,400c7.5,0,9.9,5.1,9.9,5.1h.1s-.1-1-.1-2.2v-14.9h6.2v45h-5.9v-3.1c0-1.3,0-2.2,0-2.2h-.1s-2.6,6-10.6,6-14.2-6.9-14.2-16.9,6.1-16.9,14.6-16.9h0ZM779.4,428.4c4.8,0,9.3-3.4,9.3-11.6s-3-11.5-9.1-11.5-9.3,4.2-9.3,11.5,3.8,11.5,9.1,11.5h0Z"/>
    <path class="st0" d="M855,400c9.6,0,17.4,7.1,17.4,16.8s-7.8,17-17.4,17-17.4-7.1-17.4-17,7.8-16.8,17.4-16.8ZM855,428.4c6.1,0,11.1-4.8,11.1-11.6s-5-11.5-11.1-11.5-11.1,4.8-11.1,11.5,5,11.6,11.1,11.6Z"/>
    <path class="st0" d="M890.8,406.2h-4v-5h4v-1.5c0-10.6,8-12,12.1-12s2.4.2,2.4.2v5.3s-.6-.1-1.6-.1c-2.4,0-6.8.8-6.8,6.8v1.4h7.7v5h-7.7v26.8h-6.1v-26.8h0Z"/>
    <path class="st0" d="M947.4,423.1s4.8,4.8,11.5,4.8,7.8-2.4,7.8-6.6c0-9.8-21.8-7.6-21.8-21.5s6.1-12.6,14.5-12.6,12.8,4.5,12.8,4.5l-2.9,5.2s-4.1-3.9-9.9-3.9-8.2,3-8.2,6.6c0,9.3,21.8,6.8,21.8,21.4s-5.3,12.7-14.3,12.7-14.9-5.9-14.9-5.9l3.6-4.8h0Z"/>
    <path class="st0" d="M1005.3,400c8.1,0,12.1,4.7,12.1,4.7l-2.9,4.3s-3.4-3.7-8.9-3.7-11.2,4.8-11.2,11.5,4.7,11.6,11.4,11.6,9.9-4.3,9.9-4.3l2.5,4.5s-4.5,5.2-12.9,5.2-17.3-7.2-17.3-16.9,7.1-16.9,17.3-16.9h0Z"/>
    <path class="st0" d="M1034.8,388h6.2v16.5c0,1.5-.1,2.7-.1,2.7h.1c1.4-3.1,5.5-7.2,11.9-7.2s11.1,4.1,11.1,12.4v20.6h-6.2v-19.2c0-4.5-1-8.1-6.1-8.1s-8.9,3.3-10.2,8c-.4,1.3-.5,2.7-.5,4.3v15.1h-6.2v-45h0Z"/>
    <path class="st0" d="M1079,400.8h6.6l6.7,22.6c.5,1.7.8,3.4.8,3.4h.1s.3-1.8.8-3.4l7-22.6h5.7l6.9,22.6c.5,1.7.9,3.4.9,3.4h.1s.2-1.8.8-3.4l6.8-22.6h6.5l-10.4,32.3h-6.8l-6.7-20.7c-.5-1.7-.9-3.5-.9-3.5h-.1s-.4,1.9-.9,3.5l-6.6,20.7h-6.9l-10.4-32.3h0Z"/>
    <path class="st0" d="M1161,412.9h1.4v-.6c0-5.3-3-7.1-7.1-7.1s-9,3.1-9,3.1l-2.6-4.5s4.7-3.8,12.1-3.8,12.8,4.5,12.8,12.6v20.4h-5.7v-3.1c0-1.5.1-2.5.1-2.5h-.1s-2.6,6.4-10.3,6.4-11-3.4-11-9.8c0-10.6,14-11.1,19.4-11.1h0ZM1153.9,428.8c5.2,0,8.6-5.5,8.6-10.3v-1h-1.6c-4.7,0-13.1.3-13.1,6.1s2,5.2,6.1,5.2h0Z"/>
    <path class="st0" d="M1187.4,400.8h6v5.6c0,1.3-.1,2.4-.1,2.4h.1c1.5-4.7,5.2-8.4,10.2-8.4s1.6.1,1.6.1v6.1s-.8-.2-1.8-.2c-3.9,0-7.6,2.8-9.1,7.6-.6,1.9-.8,3.8-.8,5.8v13.2h-6.2v-32.3h0Z"/>
    <path class="st0" d="M1218.5,429.4l16.3-20.4c1.4-1.7,2.7-3,2.7-3h0c0-.1-1,0-3.1,0h-15.1v-5.3h26.6v3.6l-16.3,20.5c-1.3,1.7-2.7,2.9-2.7,2.9h0c0,.1,1.1,0,3.2,0h16.4v5.3h-27.9v-3.6h0Z"/>
    <path class="st0" d="M1290.6,388h14.9c13.8,0,22.8,8.2,22.8,22.4s-9.1,22.6-22.8,22.6h-14.9v-45ZM1305.1,427.5c10.1,0,16.8-6,16.8-17.1s-6.7-17-16.8-17h-8.2v34h8.2Z"/>
    <path class="st0" d="M1346,388h6.2v6.3h-6.2v-6.3ZM1346.1,400.8h6.2v32.3h-6.2v-32.3Z"/>
    <path class="st0" d="M1383.2,441c5.6,0,10.2-2.5,10.2-9v-2.4c0-1,0-2,0-2h-.1c-1.9,3.2-4.9,5-9.6,5-9,0-14.4-7.2-14.4-16.5s5.2-16.1,14.1-16.1,10.1,4.8,10.1,4.8h.1s0-.5,0-1v-3h5.9v30.9c0,10.6-8.1,14.7-16.3,14.7s-7.9-1.1-11-2.7l2-4.8s4,2.2,8.9,2.2h0ZM1393.6,416.2c0-8.4-4.1-10.8-9.1-10.8s-8.8,4.1-8.8,10.6,3.6,11.3,9.4,11.3,8.5-2.7,8.5-11.1h0Z"/>
    <path class="st0" d="M1418.8,388h6.2v6.3h-6.2v-6.3ZM1418.9,400.8h6.2v32.3h-6.2v-32.3Z"/>
    <path class="st0" d="M1445.6,406.2h-4.2v-5h4.4v-9.3h6v9.3h7.8v5h-7.8v14.3c0,6.4,4.5,7.3,6.9,7.3s1.5-.1,1.5-.1v5.5s-.9.1-2.2.1c-4.1,0-12.4-1.3-12.4-12v-15h0Z"/>
    <path class="st0" d="M1477.1,424.7s3.6,3.8,9.2,3.8,5.4-1.4,5.4-4c0-5.9-16.6-4.7-16.6-15.2s5.2-9.2,11.7-9.2,10.4,3.6,10.4,3.6l-2.5,4.6s-2.9-2.9-8-2.9-5.3,1.1-5.3,4c0,5.8,16.6,4.5,16.6,15.1s-4.6,9.4-11.7,9.4-12.2-4.7-12.2-4.7l3-4.4h0Z"/>
  </g>
  <polygon class="st0" points="652.2 194.3 700.5 194.3 700.5 316.8 723.4 316.8 723.4 194.3 771.5 194.3 771.5 172.8 652.2 172.8 652.2 194.3"/>
  <polygon class="st0" points="1211.1 172.8 1184.5 172.8 1147.1 236.3 1141.4 245 1147.1 253.4 1186.8 316.8 1213.8 316.8 1167.9 244.3 1211.1 172.8"/>
  <rect class="st0" x="1290.8" y="172.8" width="22.8" height="144"/>
  <path class="st0" d="M857,172.8l-52.8,144h24.3l16.5-46.1,3.8-11.3,18-48.7c.2-.7.5-1.5.8-2.3.3.8.5,1.6.8,2.3l38.2,106.1h24.3l-52.8-143.9h-20.9,0Z"/>
  <path class="st0" d="M565.2,233.7h0c-14.8-6.3-26.5-11.2-26.5-22.7s8.8-18.3,23.4-18.3,26,10,26.1,10.1l4.4,4.3,11.5-19.6-2.6-2.6c-.6-.6-14.3-14.5-39.4-14.5s-46.7,18-46.7,40.9,21.7,34.4,39.1,41.9c15.6,6.8,28,12.1,28,24.9s-9,18.5-21.9,18.5c-18.6,0-31.5-13.1-31.6-13.2l-3.9-4.1-13.7,17.7,2.6,3c.7.8,16.9,18.8,46.2,18.8s45.5-16.9,45.5-41.1-22.5-36.6-40.5-44.2h0ZM564.2,236.2h0Z"/>
  <polygon class="st0" points="1378.4 172.8 1378.4 194.3 1426.8 194.3 1426.8 316.8 1449.6 316.8 1449.6 194.3 1497.8 194.3 1497.8 172.8 1378.4 172.8"/>
  <polygon class="st0" points="193.8 114.1 166 244.2 235.4 244.2 250.4 174.2 411.2 174.2 424 114.1 193.8 114.1"/>
  <polygon class="st0" points="303.4 211.8 288.4 282.2 127 282.2 114.2 342.3 345 342.3 372.8 211.8 303.4 211.8"/>
  <path class="st0" d="M1076.6,280.4c-.2.1-16.3,15.4-39.7,15.4s-49.9-21.9-50.6-52.2c.7-30.3,21.8-52.2,50.6-52.2s39.6,15.2,39.7,15.4l1.1,1,11.1-17.2-.7-.7c-.7-.8-18.1-19.4-52-19.4s-71.8,31.3-72.6,73.1c.9,41.8,31.8,73.1,72.6,73.1s51.3-18.6,52-19.4l.7-.7-11.1-17.2-1.1,1Z"/>
</svg>