<svg width="128" height="28" viewBox="0 0 128 28" fill="none" xmlns="http://www.w3.org/2000/svg">
<g clip-path="url(#clip0_1718_517)">
<path d="M0 28L1.573 20.622H21.373L23.216 11.986H31.735L28.317 28H0ZM45.315 22.285L46 21.4C46.8168 22.1878 47.8995 22.6404 49.034 22.668C49.3194 22.6981 49.608 22.6691 49.8817 22.5827C50.1553 22.4963 50.4083 22.3544 50.6247 22.1659C50.8411 21.9773 51.0163 21.7462 51.1393 21.487C51.2624 21.2277 51.3307 20.9458 51.34 20.659C51.34 17.736 45.554 18.483 45.554 14.886C45.5798 14.4429 45.6941 14.0094 45.8902 13.6112C46.0864 13.2131 46.3604 12.8582 46.696 12.5678C47.0316 12.2773 47.422 12.057 47.8442 11.92C48.2664 11.783 48.7118 11.732 49.154 11.77C50.2918 11.7378 51.3995 12.138 52.254 12.89L51.696 13.847C50.9929 13.2275 50.093 12.8771 49.156 12.858C48.8641 12.8274 48.569 12.8549 48.2879 12.9391C48.0067 13.0233 47.745 13.1624 47.518 13.3484C47.291 13.5344 47.1031 13.7636 46.9653 14.0228C46.8274 14.2819 46.7424 14.5658 46.715 14.858C46.715 17.609 52.501 16.818 52.501 20.626C52.4958 21.0693 52.3985 21.5066 52.2153 21.9103C52.0322 22.314 51.7672 22.6752 51.4371 22.9711C51.107 23.2669 50.719 23.491 50.2978 23.629C49.8765 23.7671 49.4312 23.8161 48.99 23.773H48.913C47.5642 23.7726 46.2705 23.2379 45.315 22.286V22.285ZM89.083 23.77C88.2937 23.7751 87.5115 23.62 86.7837 23.3142C86.056 23.0084 85.3979 22.5582 84.8491 21.9909C84.3003 21.4235 83.8723 20.7507 83.5909 20.0132C83.3095 19.2757 83.1806 18.4887 83.212 17.7H83.221C83.1986 16.9248 83.3331 16.1531 83.6164 15.4312C83.8997 14.7092 84.326 14.052 84.8697 13.499C85.4134 12.946 86.0632 12.5085 86.7802 12.213C87.4972 11.9174 88.2665 11.7698 89.042 11.779C90.5736 11.7156 92.0692 12.254 93.209 13.279L92.602 14.12C91.6151 13.2869 90.3645 12.8311 89.073 12.834C88.4425 12.8256 87.8169 12.9467 87.2351 13.1897C86.6532 13.4327 86.1273 13.7925 85.69 14.2467C85.2527 14.701 84.9132 15.2402 84.6925 15.8309C84.4719 16.4216 84.3747 17.0513 84.407 17.681C84.3725 18.3228 84.4679 18.9649 84.6878 19.5688C84.9076 20.1727 85.2471 20.726 85.6861 21.1954C86.1251 21.6648 86.6544 22.0407 87.2422 22.3005C87.8301 22.5602 88.4644 22.6985 89.107 22.707C90.5128 22.6988 91.8604 22.1445 92.865 21.161L93.517 21.961C92.3594 23.1135 90.7925 23.7607 89.159 23.761L89.083 23.77ZM109.169 23.577V11.788H112.055V23.576L109.169 23.577ZM120.969 23.577V14.261H117.39V11.788H127.43V14.261H123.856V23.572L120.969 23.577ZM101.849 23.577L98.536 18.038L98.199 17.538L98.536 17.021L101.651 11.994H102.951L99.5 17.457V17.488L103.191 23.571L101.849 23.577ZM77.276 23.577L73.633 13.186H73.6L69.955 23.572H68.755L73.008 11.986H74.226L78.479 23.572L77.276 23.577ZM60.276 23.577V13.006H56.109V11.986H65.572V13.007H61.418V23.572L60.276 23.577ZM6.352 15.977L9.764 0H38.019L36.441 7.378H16.71L14.876 15.969L6.352 15.977Z" fill="white"/>
</g>
<defs>
<clipPath id="clip0_1718_517">
<rect width="127.43" height="28" fill="white"/>
</clipPath>
</defs>
</svg>
