<?xml version="1.0" encoding="UTF-8" standalone="no"?>
<svg
  id="Ebene_1"
  data-name="Ebene 1"
  viewBox="0 0 212.6 80.649999"
  version="1.1"
  sodipodi:docname="sub-header-right-logo.svg"
  inkscape:version="1.1.2 (0a00cf5339, 2022-02-04)"
  width="127"
  height="48"
  xmlns:inkscape="http://www.inkscape.org/namespaces/inkscape"
  xmlns:sodipodi="http://sodipodi.sourceforge.net/DTD/sodipodi-0.dtd"
  xmlns:xlink="http://www.w3.org/1999/xlink"
  xmlns="http://www.w3.org/2000/svg"
  xmlns:svg="http://www.w3.org/2000/svg">
  <sodipodi:namedview
     id="namedview115"
     pagecolor="#ffffff"
     bordercolor="#666666"
     borderopacity="1.0"
     inkscape:pageshadow="2"
     inkscape:pageopacity="0.0"
     inkscape:pagecheckerboard="0"
     showgrid="false"
     inkscape:zoom="3.0704681"
     inkscape:cx="69.207688"
     inkscape:cy="46.24702"
     inkscape:window-width="3440"
     inkscape:window-height="1361"
     inkscape:window-x="0"
     inkscape:window-y="0"
     inkscape:window-maximized="1"
     inkscape:current-layer="Ebene_1"
     fit-margin-top="0"
     fit-margin-left="0"
     fit-margin-right="0"
     fit-margin-bottom="0" />
  <defs
     id="defs21">
    <style
       id="style2">
      .cls-1 {
        clip-path: url(#clippath);
      }

      .cls-2 {
        fill: #a59d19;
      }

      .cls-2, .cls-3, .cls-4, .cls-5, .cls-6, .cls-7 {
        stroke-width: 0px;
      }

      .cls-3 {
        fill: #f4e72d;
      }

      .cls-4, .cls-8 {
        fill: url(#Unbenannter_Verlauf_9);
      }

      .cls-5 {
        fill: url(#Unbenannter_Verlauf_14);
      }

      .cls-6 {
        fill: #fff;
      }

      .cls-7 {
        fill: #024c59;
      }
    </style>
    <linearGradient
       id="Unbenannter_Verlauf_9"
       data-name="Unbenannter Verlauf 9"
       x1="170.03"
       y1="87.360001"
       x2="170.03"
       y2="95.290001"
       gradientUnits="userSpaceOnUse">
      <stop
         offset="0"
         stop-color="#06424b"
         id="stop4" />
      <stop
         offset="0"
         stop-color="#06424b"
         id="stop6" />
      <stop
         offset="1"
         stop-color="#075562"
         id="stop8" />
    </linearGradient>
    <clipPath
       id="clippath">
      <rect
         class="cls-4"
         x="111.27"
         y="87.360001"
         width="117.52"
         height="7.9299998"
         id="rect11" />
    </clipPath>
    <linearGradient
       id="Unbenannter_Verlauf_14"
       data-name="Unbenannter Verlauf 14"
       x1="170.03"
       y1="87.360001"
       x2="170.03"
       y2="95.290001"
       gradientUnits="userSpaceOnUse">
      <stop
         offset="0"
         stop-color="#06424b"
         id="stop14" />
      <stop
         offset="0"
         stop-color="#06424b"
         id="stop16" />
      <stop
         offset="1"
         stop-color="#024c59"
         id="stop18" />
    </linearGradient>
    <linearGradient
       inkscape:collect="always"
       xlink:href="#Unbenannter_Verlauf_9"
       id="linearGradient1151"
       gradientUnits="userSpaceOnUse"
       x1="170.03"
       y1="87.360001"
       x2="170.03"
       y2="95.290001" />
  </defs>
  <polygon
     class="cls-2"
     points="228.89,99.24 247.77,88.03 228.89,88.03 "
     id="polygon23"
     transform="translate(-35.169998,-58.63)" />
  <rect
     class="cls-7"
     x="0"
     y="14.079999"
     width="193.72"
     height="66.57"
     id="rect25" />
  <g
     id="g33"
     transform="translate(-35.169998,-58.63)">
    <rect
       class="cls-8"
       x="111.27"
       y="87.360001"
       width="117.52"
       height="7.9299998"
       id="rect27"
       style="fill:url(#linearGradient1151)" />
    <g
       class="cls-1"
       clip-path="url(#clippath)"
       id="g31">
      <rect
         class="cls-5"
         x="111.27"
         y="87.360001"
         width="117.52"
         height="7.9299998"
         id="rect29"
         style="fill:url(#Unbenannter_Verlauf_14)" />
    </g>
  </g>
  <polygon
     class="cls-3"
     points="117.75,58.63 247.77,58.63 247.77,88.03 111.38,88.03 "
     id="polygon35"
     transform="translate(-35.169998,-58.63)" />
  <g
     id="g49"
     transform="translate(-35.169998,-58.63)">
    <path
       class="cls-7"
       d="m 146.13,67.61 h 3.64 c 1.25,0 1.77,0.1 2.23,0.27 1.21,0.46 2.01,1.65 2.01,3.22 0,1.57 -0.84,2.8 -2.14,3.22 v 0.03 c 0,0 0.13,0.15 0.35,0.54 l 2.53,4.62 h -1.89 l -2.51,-4.74 h -2.55 v 4.74 h -1.67 z m 4.07,5.71 c 1.3,0 2.11,-0.83 2.11,-2.16 0,-0.88 -0.34,-1.5 -0.94,-1.84 -0.32,-0.17 -0.71,-0.27 -1.64,-0.27 h -1.92 v 4.27 z"
       id="path37" />
    <path
       class="cls-7"
       d="m 156.61,67.61 h 1.67 v 7.69 c 0,1.82 1.18,2.88 3,2.88 1.82,0 3.04,-1.06 3.04,-2.92 V 67.6 h 1.67 v 7.69 c 0,2.65 -1.91,4.42 -4.69,4.42 -2.78,0 -4.69,-1.77 -4.69,-4.42 V 67.6 Z"
       id="path39" />
    <path
       class="cls-7"
       d="m 168.88,67.61 h 1.65 l 5.29,7.74 c 0.44,0.64 0.99,1.72 0.99,1.72 h 0.03 c 0,0 -0.12,-1.06 -0.12,-1.72 v -7.74 h 1.67 v 11.9 h -1.63 l -5.31,-7.72 c -0.44,-0.66 -1,-1.74 -1,-1.74 h -0.03 c 0,0 0.12,1.06 0.12,1.74 v 7.72 h -1.67 v -11.9 z"
       id="path41" />
    <path
       class="cls-7"
       d="m 181.51,76.88 c 0,0 1.26,1.28 3.04,1.28 1.11,0 2.06,-0.62 2.06,-1.75 0,-2.58 -5.77,-2.02 -5.77,-5.68 0,-1.85 1.6,-3.32 3.84,-3.32 2.24,0 3.37,1.2 3.37,1.2 l -0.76,1.38 c 0,0 -1.1,-1.03 -2.61,-1.03 -1.26,0 -2.16,0.79 -2.16,1.74 0,2.46 5.77,1.8 5.77,5.67 0,1.84 -1.42,3.36 -3.78,3.36 -2.53,0 -3.95,-1.57 -3.95,-1.57 l 0.94,-1.26 z"
       id="path43" />
    <path
       class="cls-7"
       d="m 200,67.41 c 3.44,0 6.1,2.65 6.1,6.07 0,3.42 -2.66,6.24 -6.1,6.24 -3.44,0 -6.12,-2.73 -6.12,-6.24 0,-3.51 2.68,-6.07 6.12,-6.07 z m 0,10.77 c 2.43,0 4.38,-2.02 4.38,-4.7 0,-2.68 -1.96,-4.55 -4.38,-4.55 -2.42,0 -4.4,1.96 -4.4,4.55 0,2.59 1.97,4.7 4.4,4.7 z"
       id="path45" />
    <path
       class="cls-7"
       d="m 208.36,67.61 h 1.65 l 5.29,7.74 c 0.44,0.64 1,1.72 1,1.72 h 0.03 c 0,0 -0.12,-1.06 -0.12,-1.72 v -7.74 h 1.67 v 11.9 h -1.64 l -5.31,-7.72 c -0.44,-0.66 -1,-1.74 -1,-1.74 h -0.03 c 0,0 0.12,1.06 0.12,1.74 v 7.72 h -1.67 v -11.9 z"
       id="path47" />
  </g>
  <g
     id="STACKIT_LOGO"
     transform="translate(-35.169998,-58.63)">
    <g
       id="g93">
      <path
         class="cls-6"
         d="M 100.32,127.35 H 98.3 l -0.53,1.54 h -0.78 l 1.93,-5.37 h 0.79 l 1.93,5.37 h -0.78 z m -1.01,-3.09 c 0,0 -0.12,0.49 -0.21,0.76 l -0.6,1.7 h 1.63 l -0.59,-1.7 c -0.09,-0.27 -0.21,-0.76 -0.21,-0.76 z"
         id="path51" />
      <path
         class="cls-6"
         d="m 106.67,123.52 h 1.88 c 0.91,0 1.56,0.5 1.56,1.37 0,0.52 -0.26,0.94 -0.67,1.16 v 0.02 c 0.56,0.17 0.88,0.7 0.88,1.3 0,1.01 -0.78,1.53 -1.73,1.53 h -1.92 v -5.37 z m 1.88,2.26 c 0.49,0 0.79,-0.34 0.79,-0.81 0,-0.47 -0.29,-0.79 -0.81,-0.79 h -1.11 v 1.6 z m 0.08,2.46 c 0.58,0 0.92,-0.37 0.92,-0.91 0,-0.54 -0.37,-0.92 -0.93,-0.92 h -1.2 v 1.83 z"
         id="path53" />
      <path
         class="cls-6"
         d="m 112.48,125.04 h 0.71 v 0.67 c 0,0.16 -0.02,0.29 -0.02,0.29 h 0.02 c 0.17,-0.56 0.62,-1 1.22,-1 0.1,0 0.19,0.02 0.19,0.02 v 0.73 c 0,0 -0.1,-0.02 -0.21,-0.02 -0.47,0 -0.9,0.33 -1.08,0.9 -0.07,0.22 -0.09,0.46 -0.09,0.69 v 1.57 h -0.74 z"
         id="path55" />
      <path
         class="cls-6"
         d="m 118.48,126.49 h 0.17 v -0.07 c 0,-0.63 -0.36,-0.84 -0.84,-0.84 -0.59,0 -1.07,0.37 -1.07,0.37 l -0.3,-0.54 c 0,0 0.56,-0.46 1.44,-0.46 0.97,0 1.52,0.53 1.52,1.51 v 2.43 h -0.68 v -0.37 c 0,-0.17 0.02,-0.3 0.02,-0.3 h -0.02 c 0,0 -0.31,0.76 -1.23,0.76 -0.66,0 -1.31,-0.4 -1.31,-1.17 0,-1.27 1.67,-1.32 2.32,-1.32 z m -0.85,1.9 c 0.62,0 1.03,-0.65 1.03,-1.22 v -0.12 h -0.19 c -0.56,0 -1.56,0.04 -1.56,0.73 0,0.31 0.24,0.62 0.72,0.62 z"
         id="path57" />
      <path
         class="cls-6"
         d="m 121.63,125.04 h 0.71 v 0.51 c 0,0.15 -0.02,0.28 -0.02,0.28 h 0.02 c 0.15,-0.33 0.61,-0.88 1.44,-0.88 0.91,0 1.32,0.49 1.32,1.48 v 2.46 h -0.74 v -2.3 c 0,-0.54 -0.11,-0.97 -0.73,-0.97 -0.62,0 -1.06,0.39 -1.22,0.94 -0.05,0.15 -0.06,0.33 -0.06,0.52 v 1.8 h -0.74 v -3.85 0 z"
         id="path59" />
      <path
         class="cls-6"
         d="m 128.84,124.95 c 0.89,0 1.19,0.61 1.19,0.61 h 0.02 c 0,0 -0.02,-0.11 -0.02,-0.26 v -1.78 h 0.74 v 5.37 h -0.7 v -0.37 c 0,-0.15 0,-0.26 0,-0.26 h -0.02 c 0,0 -0.31,0.71 -1.26,0.71 -1.04,0 -1.7,-0.82 -1.7,-2.02 0,-1.2 0.72,-2.02 1.74,-2.02 v 0 z m 0.1,3.39 c 0.57,0 1.11,-0.4 1.11,-1.38 0,-0.68 -0.36,-1.37 -1.09,-1.37 -0.61,0 -1.11,0.5 -1.11,1.38 0,0.88 0.45,1.38 1.09,1.38 v 0 z"
         id="path61" />
      <path
         class="cls-6"
         d="m 137.95,124.95 c 1.15,0 2.08,0.84 2.08,2.01 0,1.17 -0.93,2.02 -2.08,2.02 -1.15,0 -2.08,-0.85 -2.08,-2.02 0,-1.17 0.93,-2.01 2.08,-2.01 z m 0,3.39 c 0.73,0 1.32,-0.58 1.32,-1.38 0,-0.8 -0.59,-1.37 -1.32,-1.37 -0.73,0 -1.32,0.57 -1.32,1.37 0,0.8 0.6,1.38 1.32,1.38 z"
         id="path63" />
      <path
         class="cls-6"
         d="m 142.23,125.69 h -0.48 v -0.59 h 0.48 v -0.18 c 0,-1.27 0.96,-1.43 1.45,-1.43 0.17,0 0.28,0.02 0.28,0.02 v 0.63 c 0,0 -0.08,-0.02 -0.19,-0.02 -0.28,0 -0.81,0.09 -0.81,0.81 v 0.17 h 0.91 v 0.59 h -0.91 v 3.2 h -0.73 z"
         id="path65" />
      <path
         class="cls-6"
         d="m 148.98,127.7 c 0,0 0.57,0.58 1.37,0.58 0.5,0 0.93,-0.28 0.93,-0.79 0,-1.16 -2.6,-0.91 -2.6,-2.56 0,-0.84 0.72,-1.5 1.73,-1.5 1.01,0 1.52,0.54 1.52,0.54 l -0.34,0.62 c 0,0 -0.49,-0.46 -1.18,-0.46 -0.57,0 -0.97,0.36 -0.97,0.78 0,1.11 2.6,0.81 2.6,2.56 0,0.83 -0.64,1.51 -1.7,1.51 -1.14,0 -1.78,-0.71 -1.78,-0.71 l 0.43,-0.57 z"
         id="path67" />
      <path
         class="cls-6"
         d="m 155.89,124.95 c 0.97,0 1.44,0.56 1.44,0.56 l -0.35,0.52 c 0,0 -0.41,-0.44 -1.06,-0.44 -0.78,0 -1.34,0.58 -1.34,1.37 0,0.79 0.56,1.38 1.36,1.38 0.71,0 1.19,-0.52 1.19,-0.52 l 0.3,0.54 c 0,0 -0.53,0.62 -1.54,0.62 -1.21,0 -2.06,-0.86 -2.06,-2.02 0,-1.16 0.85,-2.02 2.06,-2.02 v 0 z"
         id="path69" />
      <path
         class="cls-6"
         d="m 159.41,123.52 h 0.74 v 1.97 c 0,0.18 -0.02,0.32 -0.02,0.32 h 0.02 c 0.17,-0.37 0.65,-0.86 1.42,-0.86 0.91,0 1.32,0.49 1.32,1.48 v 2.46 h -0.74 v -2.3 c 0,-0.54 -0.11,-0.97 -0.73,-0.97 -0.58,0 -1.06,0.4 -1.22,0.95 -0.05,0.15 -0.06,0.33 -0.06,0.51 v 1.8 h -0.74 v -5.37 0 z"
         id="path71" />
      <path
         class="cls-6"
         d="m 164.68,125.04 h 0.78 l 0.8,2.7 c 0.06,0.2 0.09,0.41 0.1,0.41 h 0.02 c 0,0 0.04,-0.21 0.1,-0.41 l 0.84,-2.69 H 168 l 0.83,2.69 c 0.06,0.2 0.11,0.41 0.11,0.41 h 0.02 c 0,0 0.03,-0.21 0.09,-0.41 l 0.81,-2.7 h 0.78 l -1.24,3.85 h -0.81 l -0.8,-2.47 c -0.06,-0.2 -0.11,-0.42 -0.11,-0.42 h -0.02 c 0,0 -0.05,0.22 -0.11,0.42 l -0.79,2.47 h -0.82 l -1.24,-3.85 v 0 z"
         id="path73" />
      <path
         class="cls-6"
         d="m 174.47,126.49 h 0.17 v -0.07 c 0,-0.63 -0.36,-0.84 -0.84,-0.84 -0.59,0 -1.07,0.37 -1.07,0.37 l -0.3,-0.54 c 0,0 0.56,-0.46 1.44,-0.46 0.97,0 1.52,0.53 1.52,1.51 v 2.43 h -0.68 v -0.37 c 0,-0.17 0.02,-0.3 0.02,-0.3 h -0.02 c 0,0 -0.31,0.76 -1.23,0.76 -0.66,0 -1.31,-0.4 -1.31,-1.17 0,-1.27 1.67,-1.32 2.32,-1.32 z m -0.85,1.9 c 0.62,0 1.03,-0.65 1.03,-1.22 v -0.12 h -0.19 c -0.56,0 -1.56,0.04 -1.56,0.73 0,0.31 0.24,0.62 0.72,0.62 v 0 z"
         id="path75" />
      <path
         class="cls-6"
         d="m 177.62,125.04 h 0.71 v 0.67 c 0,0.16 -0.02,0.29 -0.02,0.29 h 0.02 c 0.17,-0.56 0.62,-1 1.22,-1 0.1,0 0.19,0.02 0.19,0.02 v 0.73 c 0,0 -0.1,-0.02 -0.21,-0.02 -0.47,0 -0.9,0.33 -1.08,0.9 -0.07,0.22 -0.09,0.46 -0.09,0.69 v 1.57 h -0.74 z"
         id="path77" />
      <path
         class="cls-6"
         d="m 181.33,128.46 1.94,-2.43 c 0.17,-0.21 0.32,-0.36 0.32,-0.36 v -0.02 c 0,0 -0.12,0.02 -0.37,0.02 h -1.8 v -0.63 h 3.17 v 0.43 l -1.94,2.44 c -0.16,0.2 -0.33,0.35 -0.33,0.35 v 0.02 c 0,0 0.13,-0.02 0.38,-0.02 h 1.95 v 0.63 h -3.32 z"
         id="path79" />
      <path
         class="cls-6"
         d="m 189.93,123.52 h 1.78 c 1.64,0 2.72,0.98 2.72,2.68 0,1.7 -1.08,2.69 -2.72,2.69 h -1.78 z m 1.73,4.72 c 1.21,0 2,-0.71 2,-2.04 0,-1.33 -0.8,-2.02 -2,-2.02 h -0.97 v 4.06 z"
         id="path81" />
      <path
         class="cls-6"
         d="m 196.54,123.52 h 0.75 v 0.75 h -0.75 z m 0.01,1.52 h 0.74 v 3.85 h -0.74 z"
         id="path83" />
      <path
         class="cls-6"
         d="m 200.98,129.85 c 0.67,0 1.22,-0.3 1.22,-1.08 v -0.28 c 0,-0.12 0,-0.24 0,-0.24 h -0.02 c -0.23,0.38 -0.59,0.6 -1.14,0.6 -1.07,0 -1.72,-0.86 -1.72,-1.97 0,-1.11 0.62,-1.92 1.68,-1.92 0.93,0 1.21,0.57 1.21,0.57 h 0.02 c 0,0 0,-0.05 0,-0.12 v -0.36 h 0.71 v 3.69 c 0,1.27 -0.97,1.76 -1.94,1.76 -0.46,0 -0.94,-0.13 -1.32,-0.32 l 0.24,-0.58 c 0,0 0.48,0.26 1.06,0.26 v 0 z m 1.23,-2.97 c 0,-1 -0.49,-1.29 -1.09,-1.29 -0.67,0 -1.05,0.49 -1.05,1.27 0,0.78 0.43,1.35 1.12,1.35 0.53,0 1.02,-0.32 1.02,-1.32 z"
         id="path85" />
      <path
         class="cls-6"
         d="m 205.22,123.52 h 0.75 v 0.75 h -0.75 z m 0.01,1.52 h 0.74 v 3.85 h -0.74 z"
         id="path87" />
      <path
         class="cls-6"
         d="m 208.43,125.69 h -0.5 v -0.59 h 0.52 v -1.11 h 0.71 v 1.11 h 0.93 v 0.59 h -0.93 v 1.71 c 0,0.77 0.54,0.87 0.82,0.87 0.11,0 0.17,-0.02 0.17,-0.02 v 0.65 c 0,0 -0.11,0.02 -0.26,0.02 -0.49,0 -1.48,-0.15 -1.48,-1.44 v -1.79 z"
         id="path89" />
      <path
         class="cls-6"
         d="m 212.17,127.89 c 0,0 0.43,0.45 1.1,0.45 0.32,0 0.64,-0.17 0.64,-0.48 0,-0.71 -1.98,-0.56 -1.98,-1.82 0,-0.7 0.62,-1.1 1.39,-1.1 0.84,0 1.24,0.43 1.24,0.43 l -0.3,0.56 c 0,0 -0.34,-0.34 -0.95,-0.34 -0.32,0 -0.63,0.14 -0.63,0.47 0,0.69 1.98,0.54 1.98,1.8 0,0.64 -0.55,1.12 -1.39,1.12 -0.94,0 -1.46,-0.56 -1.46,-0.56 l 0.36,-0.52 v 0 z"
         id="path91" />
    </g>
    <polygon
       class="cls-6"
       points="119.53,115.02 122.26,115.02 122.26,100.41 128,100.41 128,97.85 113.77,97.85 113.77,100.41 119.53,100.41 "
       id="polygon95" />
    <polygon
       class="cls-6"
       points="172.81,105.43 172.14,106.47 172.8,107.47 177.55,115.02 180.77,115.02 175.29,106.38 180.45,97.85 177.27,97.85 "
       id="polygon97" />
    <rect
       class="cls-6"
       x="189.95"
       y="97.849998"
       width="2.73"
       height="17.17"
       id="rect99" />
    <path
       class="cls-6"
       d="m 138.19,97.85 -6.3,17.17 h 2.9 l 1.96,-5.5 0.45,-1.35 2.14,-5.81 c 0.03,-0.08 0.06,-0.18 0.1,-0.28 0.03,0.1 0.07,0.19 0.1,0.27 l 4.56,12.66 h 2.89 l -6.3,-17.17 h -2.49 v 0 z"
       id="path101" />
    <path
       class="cls-6"
       d="m 103.39,105.12 v 0 c -1.77,-0.75 -3.16,-1.34 -3.16,-2.7 0,-1.07 1.05,-2.18 2.8,-2.18 1.75,0 3.1,1.2 3.11,1.21 l 0.53,0.51 1.37,-2.33 -0.31,-0.32 c -0.07,-0.07 -1.71,-1.72 -4.7,-1.72 -2.99,0 -5.57,2.15 -5.57,4.88 0,2.99 2.58,4.11 4.66,5 1.87,0.8 3.34,1.44 3.34,2.97 0,1.3 -1.07,2.2 -2.61,2.2 -2.22,0 -3.76,-1.56 -3.78,-1.58 l -0.46,-0.49 -1.64,2.12 0.31,0.36 c 0.08,0.09 2.02,2.25 5.52,2.25 3.2,0 5.43,-2.02 5.43,-4.91 0,-3.23 -2.68,-4.36 -4.84,-5.27 z m -0.13,0.29 v 0 c 0,0 0,0 0,0 z"
       id="path103" />
    <polygon
       class="cls-6"
       points="206.17,100.41 206.17,115.02 208.9,115.02 208.9,100.41 214.64,100.41 214.64,97.85 200.41,97.85 200.41,100.41 "
       id="polygon105" />
    <polygon
       class="cls-6"
       points="64.04,106.37 65.82,98.02 85.01,98.02 86.54,90.84 59.07,90.84 55.76,106.37 "
       id="polygon107" />
    <polygon
       class="cls-6"
       points="51.1,110.9 49.57,118.07 77.11,118.07 80.43,102.5 72.15,102.5 70.36,110.9 "
       id="polygon109" />
    <path
       class="cls-6"
       d="m 164.39,110.69 c 0,0 -1.94,1.83 -4.74,1.83 -3.44,0 -5.96,-2.61 -6.04,-6.23 0.09,-3.62 2.6,-6.23 6.04,-6.23 2.8,0 4.72,1.81 4.74,1.83 l 0.13,0.12 1.32,-2.05 -0.08,-0.09 c -0.09,-0.09 -2.15,-2.31 -6.21,-2.31 -4.87,0 -8.56,3.73 -8.66,8.72 0.1,4.99 3.79,8.72 8.66,8.72 4.05,0 6.12,-2.22 6.21,-2.31 l 0.08,-0.09 -1.32,-2.05 -0.13,0.12 v 0 z"
       id="path111" />
  </g>
</svg>
