<svg width="127" height="48" viewBox="0 0 127 48" fill="none" xmlns="http://www.w3.org/2000/svg">
<g clip-path="url(#clip0_1717_701)">
<path d="M126.277 17.5107L102.736 31.5193V0H126.277V17.5107Z" fill="#F8EC17"/>
<path d="M126.277 17.5107L102.736 31.5193V0H126.277V17.5107Z" fill="url(#paint0_linear_1717_701)"/>
<path d="M0 8.38751H115.064V48.0294H0V8.38751Z" fill="#045462"/>
<path d="M16.5553 17.5107L13.9429 29.6947H20.4299L21.8388 23.1318H36.8383L38.0417 17.5107H16.5553Z" fill="white"/>
<path d="M26.7702 26.6634L25.3612 33.2557H10.3031L9.09961 38.8768H30.6448L33.2572 26.6634H26.7702ZM43.5895 34.5212C44.3233 35.2569 45.3507 35.6689 46.378 35.6689C48.0218 35.6689 49.0491 34.6094 49.0491 33.2851C49.0491 30.3716 44.6462 30.9896 44.6462 28.8706C44.6462 28.1055 45.38 27.3403 46.4954 27.3403C47.1999 27.3403 47.9044 27.6346 48.4327 28.1055L48.873 27.3697C48.2273 26.8106 47.376 26.4868 46.5248 26.5163C44.881 26.5163 43.7656 27.6346 43.7656 28.9001C43.7656 31.637 48.1686 31.0779 48.1686 33.3145C48.1686 34.2563 47.376 34.8449 46.4074 34.8449C45.5561 34.8155 44.7342 34.4917 44.0885 33.8737L43.5895 34.5212ZM54.9785 35.4923H55.8297V27.4286H58.9998V26.6634H51.8083V27.4286H54.9785V35.4923ZM67.8938 35.4923H68.8038L65.5749 26.6634H64.6356L61.4068 35.4923H62.3167L65.1053 27.5757H65.1346L67.8938 35.4923ZM72.4142 31.019C72.4142 33.6088 74.2634 35.6395 76.8759 35.6395C78.138 35.6689 79.3415 35.1686 80.2515 34.2563L79.7525 33.6383C78.9893 34.374 77.9619 34.8155 76.9052 34.8155C74.8211 34.8155 73.3241 33.0791 73.3241 30.9896C73.3241 28.9001 74.7918 27.2814 76.8759 27.2814C77.8445 27.2814 78.8132 27.6346 79.547 28.2526L80.0166 27.6052C80.0166 27.6052 78.9599 26.4574 76.8465 26.4574C74.3221 26.5163 72.4142 28.4586 72.4142 31.019ZM84.0674 31.2545L86.5917 35.4923H87.6191L84.8012 30.8424L87.443 26.6634H86.445L84.0674 30.4893L83.8032 30.8719L84.0674 31.2545ZM92.1688 26.4868H94.3703V35.4629H92.1688V26.4868ZM98.421 26.4868V28.3998H101.151V35.4923H103.323V28.3998H106.053V26.4868H98.421Z" fill="white"/>
<path d="M126.277 17.5107H50.7222L54.4794 0H126.277V17.5107Z" fill="#F8EC17"/>
<path d="M67.1891 5.00304H69.3906C69.8602 4.97362 70.3299 5.03247 70.7995 5.20905C71.504 5.50335 71.9149 6.2391 71.9149 7.12199C71.9736 8.03431 71.3866 8.88778 70.506 9.15265V9.18208C70.5647 9.27037 70.6527 9.38808 70.6821 9.47637L72.2965 12.4782H71.4453L69.7428 9.32923H67.8642V12.4782H67.1304L67.1891 5.00304ZM69.6841 8.7112C70.594 8.7112 71.1517 8.1226 71.1517 7.18085C71.1811 6.65111 70.9169 6.15081 70.4766 5.88594C70.1537 5.73879 69.7721 5.67993 69.4199 5.70936H67.9229V8.7112H69.6841ZM73.7642 5.00304H74.498V9.85896C74.498 11.1539 75.3199 11.919 76.6114 11.919C77.903 11.919 78.7248 11.1539 78.7248 9.82953V5.00304H79.4587V9.85896C79.4587 11.507 78.2845 12.5959 76.6114 12.5959C74.9383 12.5959 73.7348 11.507 73.7348 9.85896L73.7642 5.00304ZM81.5427 5.00304H82.2472L86.0631 10.3887C86.3273 10.7713 86.6795 11.3893 86.6795 11.3893H86.7089C86.7089 11.3893 86.6502 10.7713 86.6502 10.3887V5.00304H87.384V12.4782H86.6795L82.8636 7.09256C82.5994 6.70997 82.2472 6.09195 82.2472 6.09195C82.2472 6.09195 82.3059 6.70997 82.3059 7.09256V12.4782H81.5721L81.5427 5.00304ZM89.4094 11.095C89.9377 11.5953 90.6422 11.8896 91.376 11.919C92.1979 11.919 92.873 11.4187 92.873 10.6241C92.873 8.74063 89.1452 9.21151 89.1452 6.88655C89.1452 5.82708 90.0845 4.88533 91.4641 4.88533C92.1979 4.8559 92.9024 5.12076 93.4601 5.62107L93.1078 6.2391C92.6675 5.82708 92.0805 5.62107 91.4641 5.59164C90.4954 5.59164 89.879 6.20967 89.879 6.88655C89.879 8.65234 93.6068 8.15203 93.6068 10.6241C93.6068 11.7425 92.7556 12.6548 91.3467 12.6548C90.4661 12.6548 89.6148 12.3311 88.9691 11.6836L89.4094 11.095ZM101.385 4.88533C103.469 4.8559 105.172 6.56282 105.172 8.65234V8.7112C105.377 10.8007 103.822 12.6842 101.708 12.8608C99.6242 13.0668 97.7456 11.507 97.5695 9.38808C97.5402 9.15265 97.5402 8.91721 97.5695 8.68177C97.5402 6.59225 99.2133 4.88533 101.297 4.8559C101.327 4.88533 101.356 4.88533 101.385 4.88533ZM101.385 11.9485C103.059 11.9485 104.409 10.5358 104.409 8.7112C104.467 7.0337 103.147 5.62107 101.473 5.56221C99.8003 5.50335 98.3914 6.82769 98.3327 8.50519V8.68177C98.3327 10.5358 99.6829 11.9485 101.385 11.9485ZM106.816 5.00304H107.52L111.336 10.3887C111.6 10.7713 111.953 11.3893 111.953 11.3893H111.982C111.982 11.3893 111.923 10.7713 111.923 10.3887V5.00304H112.657V12.4782H111.953L108.137 7.09256C107.872 6.70997 107.52 6.09195 107.52 6.09195H107.491C107.491 6.09195 107.55 6.70997 107.55 7.09256V12.4782H106.816V5.00304Z" fill="#045462"/>
<path d="M50.7222 17.5107H115.064V20.3654H50.7222V17.5107Z" fill="url(#paint1_linear_1717_701)"/>
</g>
<defs>
<linearGradient id="paint0_linear_1717_701" x1="121.084" y1="0.0147149" x2="98.4839" y2="29.8763" gradientUnits="userSpaceOnUse">
<stop stop-opacity="0.4"/>
<stop offset="1" stop-color="#1D1D1B" stop-opacity="0.1"/>
</linearGradient>
<linearGradient id="paint1_linear_1717_701" x1="82.8829" y1="17.4666" x2="82.8829" y2="20.2624" gradientUnits="userSpaceOnUse">
<stop stop-opacity="0.2"/>
<stop offset="1" stop-opacity="0"/>
</linearGradient>
<clipPath id="clip0_1717_701">
<rect width="126.277" height="48" fill="white"/>
</clipPath>
</defs>
</svg>
